<svg width="125" height="121" viewBox="0 0 125 121" fill="none" xmlns="http://www.w3.org/2000/svg">
<path d="M81.8572 46.3948H43.1429C37.0641 46.1655 31.3132 43.6667 27.0963 39.4224C22.8793 35.1782 20.5238 29.5182 20.5238 23.6295C20.5238 17.7409 22.8793 12.0809 27.0963 7.83666C31.3132 3.59242 37.0641 1.0936 43.1429 0.864258H81.8572C87.9359 1.0936 93.6868 3.59242 97.9038 7.83666C102.121 12.0809 104.476 17.7409 104.476 23.6295C104.476 29.5182 102.121 35.1782 97.9038 39.4224C93.6868 43.6667 87.9359 46.1655 81.8572 46.3948ZM43.1429 9.50711C39.3984 9.68651 35.8685 11.2527 33.2839 13.8815C30.6993 16.5103 29.2578 20.0005 29.2578 23.6295C29.2578 27.2586 30.6993 30.7488 33.2839 33.3776C35.8685 36.0064 39.3984 37.5726 43.1429 37.752H81.8572C85.6016 37.5726 89.1315 36.0064 91.7161 33.3776C94.3008 30.7488 95.7423 27.2586 95.7423 23.6295C95.7423 20.0005 94.3008 16.5103 91.7161 13.8815C89.1315 11.2527 85.6016 9.68651 81.8572 9.50711H43.1429Z" fill="url(#paint0_linear_15_48)"/>
<path d="M62.2143 83.248H43.1428C36.9102 83.248 30.9329 80.8514 26.5258 76.5853C22.1187 72.3192 19.6428 66.5332 19.6428 60.5C19.6428 54.4669 22.1187 48.6808 26.5258 44.4147C30.9329 40.1487 36.9102 37.752 43.1428 37.752C44.3268 37.752 45.4623 38.2073 46.2995 39.0177C47.1368 39.8282 47.6071 40.9273 47.6071 42.0734C47.6071 43.2196 47.1368 44.3187 46.2995 45.1292C45.4623 45.9396 44.3268 46.3949 43.1428 46.3949C39.2782 46.3949 35.5719 47.8809 32.8393 50.5262C30.1066 53.1714 28.5714 56.7591 28.5714 60.5C28.5714 64.2409 30.1066 67.8286 32.8393 70.4739C35.5719 73.1191 39.2782 74.6052 43.1428 74.6052H57.75V42.0734C57.75 40.9273 58.2203 39.8282 59.0575 39.0177C59.8947 38.2073 61.0302 37.752 62.2143 37.752C63.3983 37.752 64.5338 38.2073 65.371 39.0177C66.2082 39.8282 66.6785 40.9273 66.6785 42.0734V78.9266C66.6785 80.0727 66.2082 81.1719 65.371 81.9823C64.5338 82.7927 63.3983 83.248 62.2143 83.248Z" fill="url(#paint1_linear_15_48)"/>
<path d="M43.4286 120.136C40.263 120.255 37.1052 119.755 34.1443 118.664C31.1833 117.574 28.4802 115.917 26.197 113.791C23.9137 111.665 22.0973 109.115 20.8565 106.293C19.6157 103.472 18.9762 100.437 18.9762 97.3704C18.9762 94.3039 19.6157 91.2689 20.8565 88.4473C22.0973 85.6258 23.9137 83.0757 26.197 80.95C28.4802 78.8242 31.1833 77.1666 34.1443 76.0763C37.1052 74.9861 40.263 74.4857 43.4286 74.6051C44.6126 74.6051 45.7481 75.0604 46.5853 75.8708C47.4225 76.6813 47.8928 77.7804 47.8928 78.9265C47.8928 80.0727 47.4225 81.1718 46.5853 81.9823C45.7481 82.7927 44.6126 83.248 43.4286 83.248C40.538 83.2411 37.7104 84.0646 35.3036 85.6141C32.8967 87.1637 31.0189 89.3696 29.9079 91.9527C28.7968 94.5357 28.5025 97.3798 29.062 100.125C29.6216 102.87 31.01 105.393 33.0514 107.374C35.0928 109.355 37.6955 110.705 40.53 111.253C43.3645 111.802 46.3033 111.524 48.9745 110.454C51.6457 109.385 53.9291 107.573 55.5357 105.247C57.1424 102.921 58 100.186 58 97.3877V78.9265C58 77.7804 58.4703 76.6813 59.3075 75.8708C60.1448 75.0604 61.2803 74.6051 62.4643 74.6051C63.6483 74.6051 64.7838 75.0604 65.621 75.8708C66.4582 76.6813 66.9286 77.7804 66.9286 78.9265V97.3877C66.9191 103.418 64.4402 109.199 60.0351 113.463C55.6301 117.727 49.6582 120.127 43.4286 120.136Z" fill="url(#paint2_linear_15_48)"/>
<path d="M81.5357 83.8357C76.8242 83.8357 72.2186 82.4833 68.3012 79.9495C64.3838 77.4158 61.3305 73.8144 59.5275 69.6009C57.7246 65.3874 57.2528 60.751 58.172 56.2779C59.0911 51.8049 61.3599 47.6962 64.6914 44.4713C68.0229 41.2464 72.2674 39.0502 76.8883 38.1605C81.5092 37.2708 86.2989 37.7274 90.6517 39.4727C95.0045 41.218 98.7249 44.1735 101.342 47.9656C103.96 51.7576 105.357 56.2159 105.357 60.7766C105.357 63.8047 104.741 66.8032 103.544 69.6009C102.347 72.3986 100.592 74.9406 98.38 77.0818C96.1679 79.2231 93.5419 80.9216 90.6517 82.0804C87.7616 83.2393 84.6639 83.8357 81.5357 83.8357ZM81.5357 46.3948C78.5886 46.3949 75.7078 47.2412 73.2579 48.8268C70.8081 50.4125 68.8992 52.666 67.7731 55.3023C66.6469 57.9385 66.3541 60.8389 66.9316 63.6363C67.5092 66.4338 68.9311 69.0024 71.0175 71.0172C73.1039 73.032 75.7609 74.4023 78.6522 74.9546C81.5435 75.507 84.539 75.2165 87.2597 74.1201C89.9804 73.0237 92.3039 71.1705 93.936 68.7952C95.5682 66.4199 96.4356 63.6293 96.4285 60.7766C96.4191 56.9591 94.8458 53.3012 92.0539 50.605C89.262 47.9089 85.4793 46.3948 81.5357 46.3948Z" fill="url(#paint3_linear_15_48)"/>
<path d="M62.2142 46.3948C61.628 46.3903 61.0484 46.274 60.5085 46.0527C59.9687 45.8313 59.4792 45.5092 59.0679 45.1047C58.6567 44.7002 58.3318 44.2213 58.1118 43.6952C57.8918 43.1692 57.781 42.6063 57.7857 42.0388L58.0714 5.15111C58.0807 4.01696 58.5503 2.93183 59.3788 2.12984C60.2073 1.32785 61.3283 0.873295 62.5 0.864258C63.0862 0.86878 63.6658 0.98504 64.2057 1.2064C64.7455 1.42776 65.235 1.74988 65.6463 2.15438C66.0575 2.55888 66.3824 3.03782 66.6024 3.56387C66.8224 4.08991 66.9332 4.65275 66.9285 5.22026L66.6428 42.108C66.6244 43.2394 66.1519 44.3194 65.3253 45.1195C64.4988 45.9196 63.383 46.377 62.2142 46.3948Z" fill="url(#paint4_linear_15_48)"/>
<defs>
<linearGradient id="paint0_linear_15_48" x1="105.139" y1="23.6295" x2="19.8609" y2="23.6295" gradientUnits="userSpaceOnUse">
<stop stop-color="#F77600"/>
<stop offset="0.284929" stop-color="#EB4D2A"/>
<stop offset="0.68537" stop-color="#5725A9"/>
<stop offset="1" stop-color="#010E81"/>
</linearGradient>
<linearGradient id="paint1_linear_15_48" x1="67.0499" y1="60.5" x2="19.2714" y2="60.5" gradientUnits="userSpaceOnUse">
<stop stop-color="#F77600"/>
<stop offset="0.284929" stop-color="#EB4D2A"/>
<stop offset="0.68537" stop-color="#5725A9"/>
<stop offset="1" stop-color="#010E81"/>
</linearGradient>
<linearGradient id="paint2_linear_15_48" x1="67.3072" y1="97.3704" x2="18.5975" y2="97.3704" gradientUnits="userSpaceOnUse">
<stop stop-color="#F77600"/>
<stop offset="0.284929" stop-color="#EB4D2A"/>
<stop offset="0.68537" stop-color="#5725A9"/>
<stop offset="1" stop-color="#010E81"/>
</linearGradient>
<linearGradient id="paint3_linear_15_48" x1="105.733" y1="60.7766" x2="57.338" y2="60.7766" gradientUnits="userSpaceOnUse">
<stop stop-color="#F77600"/>
<stop offset="0.284929" stop-color="#EB4D2A"/>
<stop offset="0.68537" stop-color="#5725A9"/>
<stop offset="1" stop-color="#010E81"/>
</linearGradient>
<linearGradient id="paint4_linear_15_48" x1="67.0009" y1="23.6295" x2="57.7133" y2="23.6295" gradientUnits="userSpaceOnUse">
<stop stop-color="#F77600"/>
<stop offset="0.284929" stop-color="#EB4D2A"/>
<stop offset="0.68537" stop-color="#5725A9"/>
<stop offset="1" stop-color="#010E81"/>
</linearGradient>
</defs>
</svg>
