<svg width="121" height="121" viewBox="0 0 121 121" fill="none" xmlns="http://www.w3.org/2000/svg">
<g clip-path="url(#clip0_15_42)">
<path d="M0 121H121V0H0V121ZM99.7443 93.9212C98.4587 89.0762 88.3955 87.9468 81.5137 82.8043C74.5562 78.1156 72.8975 66.7718 78.645 60.263C80.6112 57.843 83.858 56.028 87.2662 55.1962L90.8206 54.7475C97.7025 54.5912 101.932 56.4062 105.109 59.9605C106.026 60.863 106.702 61.7755 108.063 63.893C104.428 66.1567 104.428 66.1567 99.215 69.5649C98.0755 67.1449 96.2605 65.6324 94.2943 65.0274C91.2693 64.1199 87.4124 65.098 86.6562 68.3549C86.3587 69.338 86.4293 70.2455 86.8881 71.9093C88.1132 74.7074 92.2373 75.9174 95.948 77.6568C106.611 81.9825 110.206 86.6209 111.088 92.1415L110.856 91.8037C111.693 96.5681 110.629 99.6687 110.483 100.122C106.546 113.584 84.6143 114.037 75.8418 105.184C74.0268 103.067 72.8168 102.013 71.758 99.5931L80.9843 94.2943C83.4799 98.0755 85.7436 100.122 89.8324 101.03C95.3581 101.711 100.954 99.82 99.7443 93.9212ZM41.0039 95.6707C41.0896 95.6707 41.3265 96.1295 41.6442 96.6588C42.8189 98.62 43.8322 99.9813 45.8288 100.969C47.7748 101.579 52.0602 102.023 53.724 98.5495C54.7374 96.795 54.4197 91.0928 54.4197 84.8815C54.4197 75.0956 54.4651 65.3854 54.4651 55.6146H65.7988L65.7786 55.897C65.7786 66.3332 65.8391 76.6938 65.7786 87.0494C65.8038 93.4826 66.3483 99.2301 63.7771 103.919C61.9974 107.549 58.5942 109.893 54.6466 111.033C48.5815 112.394 42.7886 111.562 38.478 108.991C35.5841 107.251 33.3405 104.519 31.8028 101.343L41.0039 95.6707Z" fill="url(#paint0_linear_15_42)"/>
</g>
<defs>
<linearGradient id="paint0_linear_15_42" x1="121.955" y1="60.5" x2="-0.955501" y2="60.5" gradientUnits="userSpaceOnUse">
<stop stop-color="#F77600"/>
<stop offset="0.284929" stop-color="#EB4D2A"/>
<stop offset="0.68537" stop-color="#5725A9"/>
<stop offset="1" stop-color="#010E81"/>
</linearGradient>
<clipPath id="clip0_15_42">
<rect width="121" height="121" fill="white"/>
</clipPath>
</defs>
</svg>
