<svg width="140" height="140" viewBox="0 0 140 140" fill="none" xmlns="http://www.w3.org/2000/svg">
<path d="M121.355 43.1331C121.355 43.12 121.355 43.1112 121.355 43.0981C121.355 43.0894 121.346 43.0806 121.346 43.0675L117.693 21.1575C117.295 18.7775 115.059 17.1675 112.658 17.5612L86.7619 21.875H65.25V8.75C65.25 6.335 63.29 4.375 60.875 4.375H34.625H8.375C5.96 4.375 4 6.335 4 8.75V131.25C4 133.665 5.96 135.625 8.375 135.625H34.625H60.875H87.125C89.54 135.625 91.5 133.665 91.5 131.25V79.1131L100.311 131.972C100.666 134.107 102.521 135.625 104.621 135.625C104.857 135.625 105.102 135.608 105.347 135.564L131.597 131.189C133.977 130.791 135.591 128.537 135.193 126.153L121.355 43.1331ZM95.8794 52.1806L113.458 48.9825L114.272 53.8694L96.6975 57.0719L95.8794 52.1806ZM109.779 26.9106L112.019 40.3506L94.4444 43.5488L92.1606 29.8463L109.779 26.9106ZM12.75 30.625H30.25V109.375H12.75V30.625ZM39 30.625H56.5V109.375H39V30.625ZM56.5 21.875H39V13.125H56.5V21.875ZM30.25 13.125V21.875H12.75V13.125H30.25ZM12.75 118.125H30.25V126.875H12.75V118.125ZM39 118.125H56.5V126.875H39V118.125ZM82.75 126.875H65.25V30.625H82.75V126.875ZM108.221 126.214L98.1369 65.6994L115.711 62.4969L125.839 123.279L108.221 126.214Z" fill="url(#paint0_linear_22_26)"/>
<path d="M74.375 74.375C76.79 74.375 78.75 72.415 78.75 70V43.75C78.75 41.335 76.79 39.375 74.375 39.375C71.96 39.375 70 41.335 70 43.75V70C70 72.415 71.96 74.375 74.375 74.375ZM74.375 118.125C76.79 118.125 78.75 116.165 78.75 113.75V87.5C78.75 85.085 76.79 83.125 74.375 83.125C71.96 83.125 70 85.085 70 87.5V113.75C70 116.165 71.96 118.125 74.375 118.125Z" fill="url(#paint1_linear_22_26)"/>
<defs>
<linearGradient id="paint0_linear_22_26" x1="136.29" y1="70" x2="2.96353" y2="70" gradientUnits="userSpaceOnUse">
<stop stop-color="#F77600"/>
<stop offset="0.284929" stop-color="#EB4D2A"/>
<stop offset="0.68537" stop-color="#5725A9"/>
<stop offset="1" stop-color="#010E81"/>
</linearGradient>
<linearGradient id="paint1_linear_22_26" x1="78.8191" y1="78.75" x2="69.9309" y2="78.75" gradientUnits="userSpaceOnUse">
<stop stop-color="#F77600"/>
<stop offset="0.284929" stop-color="#EB4D2A"/>
<stop offset="0.68537" stop-color="#5725A9"/>
<stop offset="1" stop-color="#010E81"/>
</linearGradient>
</defs>
</svg>
