<svg width="64" height="50" viewBox="0 0 64 50" fill="none" xmlns="http://www.w3.org/2000/svg">
<g clip-path="url(#clip0_6_201)">
<path d="M42.883 15.8052C42.7836 15.8634 42.6841 15.9506 42.5847 16.0668C42.4853 16.183 42.4156 16.3089 42.3759 16.4446C42.336 16.5802 42.3261 16.7062 42.346 16.8225C42.3858 16.9387 42.4853 17.0356 42.6444 17.1131C42.6444 17.3455 42.5748 17.4909 42.4355 17.5491C42.4753 17.7428 42.4654 17.9463 42.4057 18.1594C42.366 18.3726 42.4057 18.5469 42.525 18.6826C42.4454 18.7408 42.4156 18.8473 42.4355 19.0022C42.4555 19.1379 42.4454 19.2348 42.4057 19.2928C42.525 19.5641 42.525 19.8548 42.4057 20.1649C42.3062 20.4748 42.2765 20.814 42.3162 21.1821C42.3162 21.6665 42.2864 22.0443 42.2267 22.3156C42.1669 22.5676 42.157 22.8 42.1969 23.0131C42.157 23.0713 42.1074 23.1391 42.0476 23.2167C42.0079 23.2747 41.9284 23.3039 41.8091 23.3039C41.7692 23.265 41.7394 23.1972 41.7196 23.1003C41.7196 23.0034 41.7394 22.9357 41.7791 22.8969C41.6797 22.8582 41.6003 22.7903 41.5405 22.6934C41.5008 22.5772 41.461 22.461 41.4212 22.3446C41.4012 22.2284 41.3714 22.1122 41.3317 21.9958C41.3119 21.8796 41.272 21.7827 41.2123 21.7052C41.1726 21.4146 41.1129 21.1046 41.0334 20.7751C40.9538 20.4265 40.8544 20.1164 40.7351 19.8451C40.6952 19.7677 40.6655 19.6708 40.6456 19.5545C40.6256 19.4189 40.6057 19.2832 40.5859 19.1476C40.5859 18.9925 40.566 18.8473 40.5262 18.7116C40.5063 18.576 40.4466 18.4597 40.3471 18.3628C40.2477 18.3823 40.1782 18.3726 40.1383 18.3338C40.1185 18.2951 40.0688 18.2951 39.9893 18.3338C39.9693 18.2756 39.9494 18.2272 39.9295 18.1885C39.9097 18.1303 39.8998 18.0722 39.8998 18.0141C39.9395 17.8784 39.9693 17.7719 39.9893 17.6943C40.029 17.6168 40.0688 17.5394 40.1086 17.4619C39.7505 17.3844 39.5516 17.2778 39.5119 17.1421C39.4919 17.0065 39.4721 16.8321 39.4522 16.619C39.3131 16.5222 39.2035 16.4155 39.1241 16.2992C39.0644 16.183 38.9848 16.0765 38.8854 15.9796C38.7859 16.0183 38.6865 16.028 38.5871 16.0086C38.5075 15.9893 38.4479 16.028 38.4081 16.1248C38.2489 15.9893 38.1595 15.9117 38.1395 15.8924C38.1395 15.8731 38.1197 15.8149 38.08 15.718C38.1197 15.6793 38.1794 15.6598 38.259 15.6598C38.3384 15.6598 38.3981 15.6501 38.4378 15.6308C38.3584 15.4177 38.2092 15.2723 37.9904 15.1948C37.7716 15.1174 37.6026 14.9914 37.4832 14.817C37.4038 14.7201 37.3242 14.6329 37.2446 14.5554C37.165 14.4779 37.0854 14.4101 37.0059 14.352C36.9264 14.2745 36.8369 14.2163 36.7375 14.1776C36.638 14.1388 36.5186 14.1388 36.3794 14.1776C36.3396 14.1195 36.2899 14.071 36.2302 14.0323C36.1706 13.9741 36.1208 13.9257 36.0811 13.8869C35.7628 13.9451 35.4645 13.9644 35.1861 13.9451C34.9076 13.9257 34.669 13.9354 34.4701 13.9741C34.4701 14.1291 34.4701 14.2648 34.4701 14.381C34.4701 14.4973 34.4303 14.6039 34.3508 14.7007C34.4104 14.817 34.4503 14.9042 34.4701 14.9623C34.5099 15.0205 34.4801 15.0592 34.3806 15.0786C34.4404 15.1174 34.4801 15.1948 34.4999 15.3112C34.5198 15.408 34.5497 15.4854 34.5894 15.5436C34.49 15.6405 34.4701 15.7665 34.5297 15.9214C34.6093 16.0571 34.6492 16.1927 34.6492 16.3284C34.7883 16.5222 34.8182 16.6577 34.7387 16.7353C34.6591 16.8128 34.6392 16.9484 34.6789 17.1421C34.7187 17.5684 34.7287 17.8978 34.7087 18.1303C34.6889 18.3434 34.6988 18.576 34.7387 18.8278C34.7187 19.0022 34.7087 19.167 34.7087 19.322C34.7287 19.4576 34.6988 19.5545 34.6192 19.6126C34.6988 19.8064 34.7087 20.0001 34.6492 20.1939C34.5894 20.3683 34.6093 20.5137 34.7087 20.6299C34.6889 20.9592 34.6889 21.2693 34.7087 21.56C34.7287 21.8312 34.7187 22.083 34.6789 22.3156C34.7784 22.3738 34.8381 22.4707 34.858 22.6062C34.8778 22.742 34.9276 22.8485 35.0072 22.9259C34.8282 23.0034 34.7287 23.1488 34.7087 23.3619C34.7087 23.575 34.669 23.7301 34.5894 23.8269C34.6889 23.9238 34.7187 24.0498 34.6789 24.2048C34.6392 24.3598 34.5994 24.4857 34.5596 24.5826C34.6392 24.6601 34.6591 24.7473 34.6192 24.8442C34.5795 24.9411 34.5596 25.0186 34.5596 25.0768C34.5795 25.1542 34.6093 25.2123 34.6492 25.2512C34.6889 25.2899 34.7187 25.3286 34.7387 25.3674C34.7187 25.4449 34.6889 25.503 34.6492 25.5418C34.6093 25.5805 34.5696 25.629 34.5297 25.687C34.5099 25.8615 34.5398 25.9873 34.6192 26.0649C34.6988 26.1231 34.7486 26.2296 34.7684 26.3847C34.669 26.6559 34.5596 26.8302 34.4404 26.9077C34.4005 27.0821 34.3906 27.2082 34.4104 27.2856C34.4503 27.3437 34.4701 27.46 34.4701 27.6344C34.5696 27.8088 34.5795 27.9347 34.4999 28.0122C34.4404 28.0704 34.4303 28.1479 34.4701 28.2448C34.7287 28.3028 34.8282 28.3707 34.7684 28.4482C34.7287 28.5257 34.669 28.6129 34.5894 28.7098C34.5099 28.7873 34.4303 28.8744 34.3508 28.9714C34.2911 29.0488 34.2613 29.136 34.2613 29.2329C34.2613 29.3492 34.3011 29.4363 34.3806 29.4945C34.4801 29.5333 34.4801 29.6204 34.3806 29.7561C34.5795 29.6592 34.6889 29.6399 34.7087 29.6979C34.7287 29.7367 34.7685 29.7658 34.8282 29.7851C34.6889 29.9402 34.5596 30.1242 34.4404 30.3373C34.3409 30.5504 34.3707 30.7443 34.5297 30.9186C34.4701 31.0543 34.4602 31.1899 34.4999 31.3256C34.5398 31.4612 34.5894 31.5677 34.6492 31.6452C34.5696 31.9165 34.5398 32.0812 34.5596 32.1394C34.5994 32.1975 34.6093 32.275 34.5894 32.3719C34.5099 32.4881 34.4999 32.585 34.5596 32.6625C34.6192 32.7207 34.5894 32.769 34.4701 32.8079C34.5297 32.9628 34.5497 33.1565 34.5297 33.3891C34.5099 33.6217 34.5497 33.8155 34.6492 33.9704C34.8082 34.1254 34.9971 34.2805 35.216 34.4354C35.4347 34.5711 35.7231 34.5808 36.0811 34.4646C36.5186 34.6777 36.9562 34.7939 37.3937 34.8132C37.8313 34.8132 38.2788 34.8132 38.7363 34.8132C38.7959 34.8521 38.8457 34.9004 38.8854 34.9586C38.9451 35.0167 38.9749 35.1039 38.9749 35.2202C38.8754 35.2396 38.776 35.2978 38.6766 35.3946C38.6169 35.3751 38.5672 35.414 38.5273 35.5109C38.4876 35.6077 38.4479 35.6949 38.4081 35.7725C38.1495 35.7918 37.9208 35.7725 37.7219 35.7143C37.5429 35.6561 37.354 35.6756 37.1551 35.7725C37.0358 35.7143 36.8766 35.6561 36.6778 35.5981C36.4789 35.5399 36.3197 35.5592 36.2004 35.6561C35.8623 35.5787 35.5143 35.5592 35.1563 35.5981C34.7982 35.6174 34.4203 35.6464 34.0226 35.6853C33.7441 35.6271 33.4956 35.5981 33.2767 35.5981C33.058 35.5981 32.8294 35.6077 32.5906 35.6271C32.2526 35.5689 31.9144 35.5495 31.5764 35.5689C31.2581 35.5689 30.9399 35.6077 30.6217 35.6853C30.3631 35.6271 30.1045 35.5981 29.8459 35.5981C29.6074 35.5787 29.3289 35.5592 29.0107 35.5399C28.6527 35.5012 28.3544 35.4818 28.1157 35.4818C27.8771 35.4818 27.6383 35.472 27.3997 35.4527C27.161 35.4333 26.9224 35.4237 26.6837 35.4237C26.4451 35.4237 26.2163 35.4527 25.9975 35.5109C25.7788 35.4527 25.55 35.443 25.3114 35.4818C25.0727 35.5205 24.8043 35.5205 24.506 35.4818C24.5457 35.1717 24.6352 34.9973 24.7744 34.9586C24.9137 34.9004 25.0627 34.8714 25.2219 34.8714C25.3811 34.8714 25.5401 34.8811 25.6992 34.9004C25.8584 34.9004 26.0174 34.9004 26.1766 34.9004C26.3953 34.9004 26.6041 34.8714 26.8031 34.8132C27.0219 34.7552 27.2207 34.7745 27.3997 34.8714C27.7578 34.7939 28.0162 34.7455 28.1754 34.726C28.3544 34.7067 28.5035 34.6583 28.6229 34.5808C28.8417 34.4839 29.0505 34.2902 29.2493 33.9995C29.4681 33.7088 29.6671 33.4957 29.8459 33.3601C29.8858 33.2632 29.866 33.2051 29.7864 33.1857C29.7267 33.1664 29.6869 33.1275 29.6671 33.0695C29.6869 32.9726 29.7068 32.8854 29.7267 32.8079C29.7665 32.7303 29.7465 32.6431 29.6671 32.5463C29.6869 32.3332 29.7366 32.1878 29.8162 32.1103C29.8957 32.0134 29.9654 31.9165 30.025 31.8196C30.025 31.5677 30.0349 31.3449 30.0549 31.1512C30.0946 30.9381 30.0349 30.7637 29.8759 30.628C29.9952 30.3567 30.0549 30.1629 30.0549 30.0467C30.0748 29.9305 30.1045 29.8045 30.1444 29.6689C29.9057 29.417 29.836 29.2232 29.9355 29.0876C30.0349 28.9326 30.0847 28.7582 30.0847 28.5644C30.0847 28.3513 30.0748 28.1479 30.0549 27.9542C30.0549 27.7409 30.0349 27.5375 29.9952 27.3437C30.0748 27.2082 30.0549 27.1015 29.9355 27.0241C29.7564 27.0434 29.6173 27.0531 29.5179 27.0531C29.5576 26.9369 29.6272 26.8594 29.7267 26.8205C29.8459 26.7625 29.9355 26.685 29.9952 26.5881C29.9753 26.4524 29.9753 26.3265 29.9952 26.2103C30.015 26.0745 30.025 25.9293 30.025 25.7742C29.9454 25.4061 29.9555 25.1058 30.0549 24.8732C30.1742 24.6214 30.1643 24.3598 30.025 24.0885C29.8062 24.0885 29.6869 24.0595 29.6671 24.0013C29.6471 23.9431 29.6471 23.8658 29.6671 23.7689C29.7465 23.575 29.8162 23.4588 29.8759 23.4201C29.9355 23.3812 29.9853 23.3232 30.025 23.2457C30.0051 23.0906 29.9852 22.9454 29.9654 22.8097C29.9454 22.6741 29.856 22.5966 29.6969 22.5772C29.5974 22.4028 29.5776 22.2671 29.6371 22.1702C29.7167 22.054 29.8162 21.9571 29.9355 21.8796C29.9555 21.6665 29.9156 21.4921 29.8162 21.3565C29.7167 21.2208 29.6671 21.0658 29.6671 20.8915C29.7864 20.814 29.836 20.6783 29.8162 20.4845C29.8162 20.2908 29.7764 20.1357 29.6969 20.0195C29.7764 19.9226 29.7864 19.8064 29.7267 19.6708C29.6671 19.5351 29.6671 19.4286 29.7267 19.351C29.5278 19.2928 29.4184 19.2445 29.3986 19.2056C29.3787 19.1476 29.3686 19.0894 29.3686 19.0314C29.3886 18.857 29.4482 18.7213 29.5476 18.6244C29.6671 18.5275 29.7167 18.3823 29.6969 18.1885C29.4781 18.2854 29.3587 18.3144 29.3388 18.2756C29.3388 18.2175 29.3091 18.1787 29.2493 18.1594C29.3886 18.0045 29.4184 17.9366 29.3388 17.9559C29.2593 17.9559 29.2295 17.9173 29.2493 17.8397C29.3686 17.8204 29.4383 17.7912 29.4581 17.7525C29.498 17.6943 29.498 17.6266 29.4581 17.5491C29.677 17.2585 29.7564 17.0646 29.6969 16.9677C29.6371 16.8515 29.5776 16.7449 29.5179 16.6481C29.6173 16.493 29.677 16.3089 29.6969 16.0958C29.7366 15.8827 29.677 15.7277 29.5179 15.6308C29.5776 15.3402 29.6173 15.0882 29.6371 14.8751C29.677 14.6426 29.677 14.4101 29.6371 14.1776C29.1201 14.1388 28.6229 14.1388 28.1456 14.1776C27.6683 14.197 27.2207 14.2842 26.8031 14.4392C26.8031 14.5748 26.7633 14.6717 26.6837 14.7298C26.6041 14.7879 26.5545 14.8848 26.5346 15.0205C26.4352 14.9817 26.3556 14.9914 26.2959 15.0495C26.2561 15.0882 26.2163 15.0882 26.1766 15.0495C26.097 15.2239 25.9578 15.3402 25.759 15.3984C25.5601 15.4564 25.4606 15.5824 25.4606 15.7762C25.3611 15.7762 25.2816 15.7955 25.2219 15.8342C25.1822 15.8731 25.1423 15.9214 25.1026 15.9796C25.0627 16.0376 25.023 16.0958 24.9832 16.154C24.9633 16.1927 24.9137 16.2217 24.8341 16.2412C24.8341 16.4543 24.7644 16.6481 24.6253 16.8225C24.486 16.9775 24.3965 17.1713 24.3568 17.4037C24.4562 17.5006 24.4761 17.5684 24.4165 17.6071C24.3568 17.646 24.307 17.6943 24.2673 17.7525C24.2275 17.9269 24.1877 18.0238 24.148 18.0431C24.1281 18.0431 24.0783 18.0431 23.9987 18.0431C23.8596 18.3144 23.7502 18.6244 23.6706 18.9732C23.5911 19.322 23.4618 19.632 23.2828 19.9033C23.1435 20.1939 23.0839 20.4555 23.1038 20.6879C23.1237 20.9205 23.0839 21.1433 22.9845 21.3565C22.8253 21.589 22.7458 21.7731 22.7458 21.9088C22.7458 22.0443 22.7259 22.1702 22.686 22.2866C22.5866 22.519 22.537 22.6838 22.537 22.7806C22.5568 22.8775 22.4971 22.9357 22.3579 22.955C22.2982 22.9357 22.2585 22.9065 22.2387 22.8678C22.2188 22.8097 22.1789 22.7613 22.1192 22.7225C22.2982 22.1606 22.4475 21.5696 22.5667 20.9495C22.7061 20.3296 22.8851 19.7677 23.1038 19.2638C23.1435 19.2056 23.1834 19.1573 23.2231 19.1186C23.2628 19.0798 23.2828 19.0119 23.2828 18.915C23.0839 18.8181 23.0044 18.7601 23.0441 18.7408C23.0839 18.7019 23.1038 18.6536 23.1038 18.5954C23.2429 18.576 23.3126 18.5275 23.3126 18.45C23.3126 18.3531 23.3723 18.2854 23.4916 18.2466C23.3723 18.0528 23.3325 17.9559 23.3723 17.9559C23.412 17.9559 23.4517 17.9366 23.4916 17.8978C23.3922 17.8591 23.3126 17.8784 23.2529 17.9559C23.2132 18.0141 23.1435 18.0431 23.0441 18.0431C22.8253 18.1982 22.7458 18.2854 22.8055 18.3048C22.8851 18.3241 22.9149 18.3531 22.895 18.392C22.7956 18.45 22.716 18.4597 22.6563 18.421C22.5967 18.3823 22.527 18.3628 22.4475 18.3628C22.4673 18.5372 22.4276 18.6536 22.3282 18.7116C22.2486 18.7698 22.1392 18.8376 21.9999 18.915C21.9005 19.1863 21.8707 19.4382 21.9104 19.6708C21.9701 19.9033 21.9999 20.1455 21.9999 20.3973C21.9999 20.5717 21.9602 20.7848 21.8806 21.0367C21.8209 21.2693 21.8707 21.4728 22.0299 21.6472C21.9503 21.8603 21.9304 22.0637 21.9701 22.2574C22.0298 22.4512 22.0497 22.6741 22.0299 22.9259L21.7314 23.0713C21.6319 22.9357 21.5922 22.7903 21.6121 22.6353C21.652 22.4803 21.6121 22.3543 21.4928 22.2574C21.5525 21.8312 21.5625 21.4242 21.5226 21.0367C21.5027 20.6299 21.4829 20.2229 21.463 19.8161C21.463 19.7385 21.4729 19.6708 21.4928 19.6126C21.5127 19.5351 21.5226 19.4673 21.5226 19.4092C21.5625 19.196 21.5625 18.9539 21.5226 18.6826C21.5027 18.4113 21.5226 18.1594 21.5823 17.9269C21.622 17.8494 21.642 17.7525 21.642 17.6363C21.642 17.5199 21.622 17.4037 21.5823 17.2875C21.4033 17.21 21.284 17.1906 21.2243 17.2293C21.1846 17.2681 21.1447 17.2875 21.105 17.2875C21.1846 17.1324 21.2342 17.0452 21.2541 17.0259C21.2939 17.0065 21.3436 16.9969 21.4033 16.9969C21.3237 16.9 21.3237 16.8225 21.4033 16.7643C21.4829 16.6867 21.5424 16.5899 21.5823 16.4737C21.5027 16.2992 21.4829 16.212 21.5226 16.212C21.5625 16.1927 21.5922 16.1637 21.6121 16.1248C21.6917 15.8536 21.7016 15.4757 21.642 14.9914C21.5823 14.507 21.5027 14.071 21.4033 13.6835C21.5027 13.6641 21.622 13.6544 21.7613 13.6544C21.9203 13.635 22.0098 13.6641 22.0299 13.7416C22.0696 13.6835 22.1789 13.635 22.3579 13.5963C22.4971 13.635 22.6463 13.6544 22.8055 13.6544C22.9645 13.6544 23.1137 13.6544 23.2529 13.6544C23.3922 13.635 23.5214 13.606 23.6407 13.5672C23.7601 13.5285 23.8596 13.4607 23.9392 13.3638C24.0386 13.4607 24.1678 13.5285 24.327 13.5672C24.486 13.606 24.6551 13.6254 24.8341 13.6254C25.033 13.606 25.2219 13.5769 25.4009 13.5382C25.5799 13.4994 25.729 13.4607 25.8485 13.4219C26.4052 13.48 26.8528 13.5091 27.1909 13.5091C27.529 13.5091 27.8771 13.5285 28.2351 13.5672C28.3941 13.4897 28.5433 13.4607 28.6825 13.48C28.8417 13.48 28.9907 13.4994 29.13 13.5382C29.2692 13.5769 29.4085 13.606 29.5476 13.6254C29.6869 13.6447 29.8261 13.6157 29.9654 13.5382C30.1444 13.5575 30.2935 13.5769 30.4128 13.5963C30.5521 13.6157 30.6615 13.606 30.741 13.5672C30.9399 13.5672 31.1189 13.5672 31.2779 13.5672C31.4371 13.5672 31.5962 13.5769 31.7553 13.5963C31.9343 13.6157 32.0934 13.6157 32.2326 13.5963C32.3917 13.5575 32.511 13.48 32.5906 13.3638C32.8294 13.4994 33.0481 13.5479 33.247 13.5091C33.4458 13.4703 33.6447 13.4316 33.8436 13.3928C33.963 13.3735 34.0823 13.3832 34.2016 13.4219C34.3209 13.4413 34.4303 13.4413 34.5297 13.4219C34.6889 13.4025 34.8282 13.3541 34.9475 13.2766C35.0668 13.1991 35.2061 13.2378 35.3651 13.3928C35.584 13.3735 35.8027 13.3735 36.0214 13.3928C36.2401 13.4122 36.439 13.4316 36.618 13.451C36.8169 13.451 37.0059 13.4413 37.1849 13.4219C37.3639 13.3832 37.5131 13.3153 37.6324 13.2185C37.7916 13.2572 37.8811 13.2863 37.9009 13.3057C37.9407 13.3057 37.9706 13.3444 37.9904 13.4219C38.3882 13.2863 38.6865 13.1991 38.8854 13.1603C39.1041 13.1216 39.323 13.0538 39.5417 12.9569C39.6412 12.9956 39.7406 13.0441 39.84 13.1022C39.9593 13.141 40.0389 13.2088 40.0788 13.3057C40.2975 13.2669 40.5462 13.2766 40.8245 13.3347C41.1029 13.3735 41.3516 13.4025 41.5703 13.4219C41.6499 13.2863 41.7493 13.2185 41.8686 13.2185C41.9881 13.2185 42.0974 13.2669 42.1969 13.3638C42.2963 13.4413 42.3559 13.5479 42.3759 13.6835C42.4156 13.7998 42.3759 13.9257 42.2565 14.0613C42.336 14.1582 42.346 14.2454 42.2864 14.3229C42.2267 14.4004 42.2366 14.4876 42.3162 14.5845C42.4156 14.5264 42.515 14.4973 42.6145 14.4973C42.7338 14.4973 42.8034 14.536 42.8233 14.6135C42.8433 14.7104 42.8134 14.7492 42.7338 14.7298C42.6742 14.7104 42.6145 14.7395 42.5549 14.817C42.4952 14.8751 42.4555 14.9623 42.4355 15.0786C42.4355 15.1754 42.3858 15.253 42.2864 15.3112C42.2864 15.408 42.336 15.4467 42.4355 15.4274C42.5549 15.408 42.6244 15.4467 42.6444 15.5436C42.7836 15.5629 42.8433 15.5921 42.8233 15.6308C42.8233 15.6501 42.8433 15.7083 42.883 15.8052ZM22.9248 19.2928C22.8651 19.351 22.8055 19.3897 22.7458 19.4092C22.686 19.4286 22.6662 19.4769 22.686 19.5545C22.6265 19.4769 22.6165 19.4092 22.6563 19.351C22.716 19.2928 22.8055 19.2735 22.9248 19.2928ZM41.8686 13.8579C41.7692 13.8191 41.6898 13.7998 41.63 13.7998C41.5902 13.7998 41.5306 13.7707 41.451 13.7125C41.4113 13.7901 41.3119 13.7998 41.1527 13.7416C40.9936 13.6835 40.8842 13.7029 40.8245 13.7998C40.725 14.0516 40.5958 14.2357 40.4367 14.352C40.2776 14.4682 40.0887 14.5457 39.8698 14.5845C39.7108 14.6426 39.5814 14.7007 39.482 14.7589C39.4026 14.8557 39.3329 14.943 39.2732 15.0205C39.2335 15.0786 39.1638 15.1367 39.0644 15.1948C39.1638 15.2917 39.2831 15.3305 39.4224 15.3112C39.5814 15.2723 39.7009 15.2723 39.7805 15.3112C39.8799 15.1174 39.9693 14.9914 40.0488 14.9333C40.1483 14.8557 40.2776 14.8267 40.4367 14.8461C40.4765 14.6135 40.5561 14.4779 40.6754 14.4392C40.8145 14.4004 40.934 14.4101 41.0334 14.4682C41.0533 14.3713 41.1329 14.3229 41.272 14.3229C41.4312 14.3229 41.4808 14.2745 41.4212 14.1776C41.5802 14.1195 41.6997 14.0807 41.7791 14.0613C41.8587 14.042 41.8886 13.9741 41.8686 13.8579ZM41.0035 14.7298C40.9439 14.7686 40.8743 14.7782 40.7947 14.7589C40.7351 14.7201 40.6655 14.7201 40.5859 14.7589C40.745 14.8751 40.8544 14.9235 40.914 14.9042C40.9936 14.8654 41.0235 14.8073 41.0035 14.7298ZM41.7196 16.3284C41.6797 16.2315 41.64 16.183 41.6003 16.183C41.5604 16.1637 41.5108 16.1637 41.451 16.183C41.4113 16.183 41.3516 16.1927 41.272 16.212C41.2123 16.2315 41.1428 16.2315 41.0632 16.212C41.1229 16.3089 41.2224 16.3478 41.3615 16.3284C41.5008 16.3089 41.6201 16.3089 41.7196 16.3284ZM40.1383 13.916C39.9593 13.761 39.8003 13.7125 39.661 13.7707C39.5417 13.8094 39.4224 13.8676 39.303 13.9451C39.2035 14.0032 39.0942 14.071 38.9749 14.1485C38.8754 14.226 38.7661 14.2648 38.6468 14.2648C38.5672 14.4004 38.4479 14.4973 38.2888 14.5554C38.3882 14.6911 38.4678 14.7492 38.5273 14.7298C38.5871 14.6911 38.6567 14.6911 38.7363 14.7298C38.9352 14.4973 39.0942 14.3907 39.2136 14.4101C39.3726 14.2745 39.5119 14.1582 39.6312 14.0613C39.7505 13.9644 39.9196 13.916 40.1383 13.916ZM40.4964 15.0495C40.4367 14.9914 40.3771 14.9914 40.3174 15.0495C40.2576 15.1076 40.1981 15.1174 40.1383 15.0786C39.9593 15.2336 39.8599 15.3305 39.84 15.3692C39.84 15.408 39.8202 15.4467 39.7805 15.4854C39.7207 15.4467 39.661 15.437 39.6014 15.4564C39.5616 15.4564 39.5119 15.4661 39.4522 15.4854C39.4522 15.5824 39.4324 15.6405 39.3925 15.6598C39.3528 15.6793 39.3428 15.7373 39.3627 15.8342C39.661 15.7567 39.8202 15.6405 39.84 15.4854C39.9395 15.4854 40.0091 15.437 40.0488 15.3402C40.1086 15.2433 40.1881 15.253 40.2876 15.3692C40.2677 15.2723 40.2876 15.2143 40.3471 15.1948C40.4267 15.1754 40.4765 15.1271 40.4964 15.0495ZM42.0179 16.9969C42.0377 16.8612 41.998 16.7739 41.8986 16.7353C41.819 16.6966 41.7295 16.6577 41.63 16.619C41.6102 16.8128 41.5703 16.9097 41.5107 16.9097C41.451 16.8903 41.4012 16.9 41.3615 16.9387C41.2224 17.0356 41.0831 17.1034 40.9439 17.1421C40.8046 17.1616 40.7151 17.1034 40.6754 16.9677C40.7351 16.9677 40.7947 16.9677 40.8544 16.9677C40.914 16.9484 40.9638 16.9193 41.0035 16.8806C41.2224 16.8031 41.3317 16.7836 41.3317 16.8225C41.3317 16.8612 41.3615 16.8708 41.4212 16.8515C41.461 16.7353 41.4312 16.6966 41.3317 16.7353C41.2323 16.7546 41.1726 16.7256 41.1527 16.6481C41.0533 16.6287 40.9638 16.619 40.8842 16.619C40.8245 16.5995 40.755 16.6094 40.6754 16.6481C40.7151 16.7256 40.6952 16.7836 40.6157 16.8225C40.5361 16.8612 40.4964 16.929 40.4964 17.0259C40.6157 17.2003 40.7151 17.2778 40.7947 17.2585C40.8941 17.2196 40.9836 17.2196 41.0632 17.2585C41.1029 17.4909 41.1329 17.6071 41.1527 17.6071C41.1924 17.5878 41.2224 17.5588 41.2422 17.5199C41.2621 17.4812 41.2819 17.4327 41.3018 17.3747C41.3417 17.3165 41.3814 17.2875 41.4212 17.2875C41.5008 17.2875 41.5703 17.2972 41.63 17.3165C41.6898 17.3165 41.7394 17.3165 41.7791 17.3165C41.8388 17.1616 41.8786 17.0744 41.8986 17.0549C41.9383 17.0356 41.9781 17.0162 42.0179 16.9969ZM38.7363 13.7998C38.4777 13.8191 38.239 13.8385 38.0202 13.8579C37.8015 13.8579 37.6622 13.9741 37.6026 14.2067C37.7021 14.226 37.7616 14.2648 37.7816 14.3229C37.8214 14.381 37.891 14.4295 37.9904 14.4682C38.0899 14.2745 38.2191 14.1679 38.3783 14.1485C38.5573 14.1098 38.6766 13.9935 38.7363 13.7998ZM41.6898 17.5491C41.451 17.646 41.2819 17.7428 41.1825 17.8397C41.0831 17.9366 40.9638 18.0335 40.8245 18.1303C40.8643 18.3434 40.934 18.4695 41.0334 18.5082C41.3516 18.3144 41.5703 17.9946 41.6898 17.5491ZM42.0179 18.0141C41.9781 18.1885 41.8289 18.3241 41.5703 18.421C41.5703 18.6147 41.5207 18.7309 41.4212 18.7698C41.3417 18.8085 41.2522 18.857 41.1527 18.915C41.2323 18.9925 41.2621 19.0701 41.2422 19.1476C41.2224 19.2056 41.2123 19.2638 41.2123 19.322C41.3317 19.3027 41.4212 19.2832 41.4808 19.2638C41.5604 19.2251 41.6499 19.2251 41.7493 19.2638C42.0079 19.0119 42.1272 18.7698 42.1074 18.5372C42.1074 18.3048 42.0776 18.1303 42.0179 18.0141ZM41.8986 19.6126C41.64 19.6708 41.451 19.787 41.3317 19.9614C41.2123 20.1357 41.2224 20.3586 41.3615 20.6299C41.5008 20.7268 41.63 20.6978 41.7493 20.5427C41.6898 20.407 41.7196 20.2617 41.8388 20.1067C41.9782 19.9323 41.998 19.7677 41.8986 19.6126ZM41.9581 21.0367C41.7991 21.0756 41.7394 21.1336 41.7791 21.2112C41.819 21.2693 41.819 21.3177 41.7791 21.3565C41.64 21.3952 41.5902 21.4921 41.63 21.6472C41.6898 21.8021 41.7692 21.9184 41.8686 21.9958C41.9284 21.8796 41.9681 21.7344 41.9881 21.56C42.0079 21.3662 41.998 21.1918 41.9581 21.0367ZM32.8294 14.3229C32.6702 14.2842 32.521 14.2938 32.3818 14.352C32.2427 14.3907 32.1232 14.4198 32.0238 14.4392C32.0636 14.3229 32.1331 14.2648 32.2326 14.2648C32.332 14.2648 32.4316 14.2454 32.531 14.2067L32.0835 13.9451C31.8648 14.2163 31.5863 14.4295 31.2481 14.5845C30.9101 14.7201 30.6317 14.9138 30.4128 15.1658C30.4328 15.282 30.4029 15.3789 30.3233 15.4564C30.2438 15.5146 30.1742 15.5921 30.1145 15.689C30.0748 15.7665 30.0648 15.8439 30.0847 15.9214C30.1244 15.9989 30.204 16.0571 30.3233 16.0958C30.562 15.8827 30.7311 15.718 30.8305 15.6018C30.93 15.4854 31.0592 15.3885 31.2184 15.3112C31.2581 15.4467 31.288 15.4564 31.3079 15.3402C31.3277 15.2045 31.4172 15.1561 31.5764 15.1948C31.6758 15.0786 31.7453 15.0107 31.7852 14.9914C31.8448 14.9527 31.8946 14.9138 31.9343 14.8751C31.9741 14.8364 32.0139 14.8073 32.0537 14.7879C32.0934 14.7686 32.1432 14.7686 32.2028 14.7879C32.2427 14.6717 32.3221 14.6039 32.4415 14.5845C32.5807 14.5651 32.6603 14.4779 32.6801 14.3229H32.8294ZM31.5167 13.9451C31.2581 14.0032 31.0195 14.0129 30.8006 13.9741C30.6017 13.9354 30.383 13.9548 30.1444 14.0323C30.045 14.1485 30.0051 14.2842 30.025 14.4392C30.0648 14.5748 30.0748 14.7395 30.0549 14.9333C30.3532 14.8751 30.6217 14.7589 30.8603 14.5845C31.1189 14.3907 31.3377 14.1776 31.5167 13.9451ZM34.0823 13.9741C33.9829 13.916 33.8934 13.8966 33.8138 13.916C33.7342 13.916 33.6348 13.9063 33.5155 13.8869C33.4359 14.0226 33.3563 14.1582 33.2767 14.2938C33.2172 14.4295 33.0779 14.507 32.8591 14.5264C32.7994 14.6232 32.7299 14.7201 32.6503 14.817C32.5708 14.9138 32.4215 14.943 32.2028 14.9042C32.1432 15.0592 32.0636 15.1367 31.9642 15.1367C31.8648 15.1174 31.7653 15.1271 31.6657 15.1658C31.4669 15.3595 31.268 15.5533 31.0691 15.747C30.8901 15.9408 30.6515 16.0958 30.3532 16.212C30.3334 16.3089 30.3532 16.3671 30.4128 16.3864C30.4725 16.3864 30.5023 16.435 30.5023 16.5318C30.4427 16.6094 30.3731 16.6771 30.2935 16.7353C30.2339 16.7739 30.1841 16.8418 30.1444 16.9387C30.3233 16.8612 30.4924 16.7449 30.6515 16.5899C30.7907 16.7449 30.8206 16.8515 30.741 16.9097C30.6615 16.9484 30.6017 17.0259 30.562 17.1421C30.4227 17.1034 30.3334 17.1131 30.2935 17.1713C30.2538 17.21 30.1941 17.239 30.1145 17.2585C30.2339 17.394 30.2836 17.4716 30.2637 17.4909C30.2438 17.4909 30.2538 17.5103 30.2935 17.5491C30.3532 17.5491 30.4128 17.5394 30.4725 17.5199C30.5322 17.5006 30.5918 17.5103 30.6515 17.5491C30.5918 17.5878 30.5223 17.6363 30.4427 17.6943C30.3631 17.7525 30.2935 17.8204 30.2339 17.8978C30.1941 17.9753 30.1742 18.0528 30.1742 18.1303C30.1742 18.2079 30.2238 18.2756 30.3233 18.3338C30.3631 18.2951 30.3929 18.2562 30.4128 18.2175C30.4328 18.1594 30.4824 18.111 30.562 18.0722C30.7212 17.9753 30.8107 17.9173 30.8305 17.8978C30.8504 17.8784 30.8802 17.8687 30.92 17.8687C31.0791 18.0625 31.1686 18.14 31.1886 18.1013C31.3079 17.985 31.4272 17.9269 31.5465 17.9269C31.5663 17.83 31.5365 17.7815 31.4569 17.7815C31.3774 17.7622 31.3178 17.7332 31.2779 17.6943C31.2382 17.8881 31.1487 17.9946 31.0096 18.0141C30.9101 17.9173 30.8802 17.8397 30.92 17.7815C30.9796 17.704 31.0791 17.675 31.2184 17.6943C31.1388 17.6556 31.109 17.5878 31.1288 17.4909C31.1487 17.3747 31.2283 17.3262 31.3674 17.3455C31.4272 17.4425 31.4669 17.4716 31.4869 17.4327C31.5266 17.394 31.5962 17.394 31.6957 17.4327C31.8547 17.3553 31.9543 17.2681 31.994 17.1713C32.2127 16.9969 32.3122 16.8225 32.2923 16.6481C32.352 16.6481 32.4017 16.6287 32.4415 16.5899C32.4813 16.5512 32.541 16.5512 32.6204 16.5899C32.3818 16.5899 32.2526 16.5705 32.2326 16.5318C32.2326 16.493 32.2227 16.4543 32.2028 16.4155C32.3221 16.3768 32.4116 16.3186 32.4713 16.2412C32.5509 16.1637 32.6702 16.1152 32.8294 16.0958C32.9486 16.0183 33.0084 15.9699 33.0084 15.9506C33.0282 15.9117 33.058 15.8731 33.0979 15.8342C33.2767 15.6598 33.4458 15.5533 33.605 15.5146C33.764 15.4564 33.9132 15.3885 34.0525 15.3112C34.0922 15.0786 34.0922 14.8557 34.0525 14.6426C34.0325 14.4101 34.0425 14.1873 34.0823 13.9741ZM32.7099 17.0549C32.5906 17.0162 32.5011 17.0065 32.4415 17.0259C32.4017 17.0452 32.362 17.0744 32.3221 17.1131C32.362 17.21 32.4316 17.2585 32.531 17.2585C32.6305 17.239 32.6901 17.1713 32.7099 17.0549ZM34.3806 19.9905C34.3209 19.8742 34.3011 19.7774 34.3209 19.6998C34.3608 19.6223 34.3806 19.5061 34.3806 19.351C34.1419 19.4286 34.0226 19.4479 34.0226 19.4092C34.0425 19.3704 34.0325 19.351 33.9928 19.351C33.7939 19.2348 33.6746 19.196 33.6348 19.2348C33.5951 19.2542 33.5552 19.2445 33.5155 19.2056C33.6945 19.167 33.8039 19.167 33.8436 19.2056C33.8834 19.2445 33.9331 19.2735 33.9928 19.2928C33.9928 19.1766 34.0127 19.0991 34.0525 19.0604C34.0922 19.0022 34.0922 18.9247 34.0525 18.8278C34.132 18.7698 34.1917 18.7408 34.2314 18.7408C34.2911 18.7213 34.3409 18.7019 34.3806 18.6826C34.3409 18.5857 34.3409 18.4597 34.3806 18.3048C34.4203 18.1303 34.3608 18.0431 34.2016 18.0431C33.9829 18.2369 33.8636 18.3048 33.8436 18.2466C33.8237 18.1885 33.784 18.1787 33.7243 18.2175C33.7441 18.3726 33.7144 18.4792 33.6348 18.5372C33.5552 18.5954 33.4756 18.6147 33.3962 18.5954C33.2968 18.4403 33.2767 18.3628 33.3365 18.3628C33.3962 18.3628 33.4359 18.3241 33.4558 18.2466C33.6546 18.169 33.7939 18.1303 33.8735 18.1303C33.9529 18.111 34.0226 18.0722 34.0823 18.0141C33.943 17.9946 33.8237 17.9946 33.7243 18.0141C33.6249 18.0141 33.5056 18.0335 33.3663 18.0722C33.3265 17.8978 33.3166 17.7912 33.3365 17.7525C33.3563 17.7137 33.4061 17.7137 33.4857 17.7525C33.5651 17.9269 33.6248 17.9946 33.6646 17.9559C33.7243 17.8978 33.784 17.8881 33.8436 17.9269C33.9232 17.7525 33.943 17.6556 33.9033 17.6363C33.8636 17.6168 33.8436 17.5781 33.8436 17.5199C33.943 17.4812 34.0226 17.4619 34.0823 17.4619C34.1619 17.4619 34.2613 17.4522 34.3806 17.4327C34.4005 17.2778 34.3409 17.1518 34.2016 17.0549C34.0823 17.21 33.963 17.2681 33.8436 17.2293C33.8039 17.3068 33.784 17.365 33.784 17.4037C33.784 17.4231 33.7541 17.4619 33.6945 17.5199C33.6546 17.3844 33.6945 17.2681 33.8138 17.1713C33.9331 17.0744 34.0027 16.9677 34.0226 16.8515C34.0425 16.7739 34.0127 16.7256 33.9331 16.7062C33.8535 16.6867 33.764 16.7062 33.6646 16.7643C33.6447 16.6674 33.6646 16.619 33.7243 16.619C33.784 16.5995 33.8436 16.5899 33.9033 16.5899C33.963 16.5899 34.0226 16.5899 34.0823 16.5899C34.1419 16.5899 34.1818 16.5705 34.2016 16.5318C34.0823 16.493 34.0525 16.4155 34.1121 16.2992C34.1718 16.183 34.1619 16.0862 34.0823 16.0086C33.9232 16.0475 33.8039 16.1248 33.7243 16.2412C33.6447 16.3381 33.5056 16.3768 33.3067 16.3574C33.3067 16.4543 33.2767 16.5318 33.2172 16.5899C33.1575 16.6287 33.0878 16.6674 33.0084 16.7062C32.9487 16.7256 32.8889 16.7546 32.8294 16.7934C32.7696 16.8128 32.7299 16.8612 32.7099 16.9387C32.8889 16.958 32.9983 16.9872 33.0382 17.0259C33.0979 17.0646 33.1078 17.1034 33.0679 17.1421C32.8691 17.239 32.7597 17.2972 32.7398 17.3165C32.7398 17.3165 32.72 17.2972 32.6801 17.2585C32.521 17.3165 32.4316 17.365 32.4116 17.4037C32.3917 17.4231 32.362 17.4425 32.3221 17.4619C32.1432 17.3844 32.0436 17.3747 32.0238 17.4327C32.0039 17.4909 31.9642 17.5296 31.9045 17.5491C31.7453 17.5491 31.6459 17.5491 31.6062 17.5491C31.5663 17.5491 31.5365 17.5588 31.5167 17.5781C31.5365 17.6943 31.5863 17.7525 31.6657 17.7525C31.7653 17.7525 31.8348 17.7137 31.8747 17.6363C31.8946 17.7525 31.8846 17.83 31.8448 17.8687C31.8249 17.8881 31.7852 17.9076 31.7255 17.9269C31.6858 17.9463 31.636 17.9656 31.5764 17.985C31.5365 17.985 31.5067 18.0141 31.4869 18.0722C31.3476 18.169 31.2481 18.2466 31.1886 18.3048C31.1487 18.3628 31.0592 18.3823 30.92 18.3628C30.6614 18.5567 30.4626 18.7116 30.3233 18.8278C30.204 18.9247 30.1444 19.0991 30.1444 19.351C30.3034 19.3123 30.4725 19.2542 30.6515 19.1766C30.8504 19.0991 30.9996 19.1088 31.0991 19.2056C31.1985 19.0314 31.288 18.9247 31.3674 18.886L31.7852 18.7116C31.8249 18.6147 31.8448 18.5567 31.8448 18.5372C31.8648 18.4985 31.8747 18.45 31.8747 18.392C32.1331 18.3338 32.3022 18.2756 32.3818 18.2175C32.4614 18.14 32.5011 18.0818 32.5011 18.0431C32.6204 17.985 32.7 17.9269 32.7398 17.8687C32.7994 17.7912 32.8989 17.7332 33.0382 17.6943C33.0979 17.6943 33.1376 17.7332 33.1575 17.8107C33.1773 17.8687 33.1973 17.9463 33.2172 18.0431C33.1575 18.0625 33.0878 18.0722 33.0084 18.0722C32.9288 18.0722 32.879 18.111 32.8591 18.1885C32.7597 18.4016 32.6702 18.5178 32.5906 18.5372C32.511 18.5567 32.4614 18.605 32.4415 18.6826C32.4017 18.5857 32.3221 18.5664 32.2028 18.6244C32.0835 18.6632 32.0039 18.7116 31.9642 18.7698C31.8249 18.9247 31.7354 19.0119 31.6957 19.0314C31.6558 19.0314 31.626 19.0507 31.6062 19.0894C31.6657 19.1088 31.7155 19.0894 31.7553 19.0314C31.815 18.9539 31.8747 18.9539 31.9343 19.0314C31.636 19.2251 31.3476 19.4189 31.0691 19.6126C30.7907 19.787 30.4924 19.9614 30.1742 20.1357C30.1742 20.3101 30.1941 20.4362 30.2339 20.5137C30.2736 20.5717 30.3233 20.6396 30.383 20.7171C30.4227 20.6009 30.4725 20.5427 30.5322 20.5427C30.5918 20.5427 30.6416 20.5524 30.6813 20.5717C30.7212 20.4942 30.7708 20.407 30.8305 20.3101C30.9101 20.2132 30.9895 20.1164 31.0691 20.0195C31.288 19.9033 31.3974 19.8646 31.3974 19.9033C31.4172 19.9226 31.447 19.9323 31.4869 19.9323C31.5863 19.8161 31.6558 19.7579 31.6957 19.7579C31.7354 19.7385 31.7852 19.7579 31.8448 19.8161C31.7453 19.661 31.6758 19.5641 31.636 19.5254C31.7155 19.5061 31.7753 19.4769 31.815 19.4382C31.8547 19.3995 31.8946 19.3704 31.9343 19.351C31.994 19.2735 32.0238 19.2056 32.0238 19.1476C32.0436 19.0894 32.0934 19.0507 32.173 19.0314C32.2724 19.1088 32.4017 19.1766 32.5608 19.2348C32.5608 19.0798 32.5906 19.0022 32.6503 19.0022C32.7299 18.9829 32.7895 18.9925 32.8294 19.0314C32.7696 18.9345 32.7597 18.8667 32.7994 18.8278C32.8591 18.7698 32.879 18.6923 32.8591 18.5954C32.9189 18.7504 32.9586 18.886 32.9784 19.0022C32.9983 19.0991 33.0481 19.1088 33.1277 19.0314C33.1277 19.3607 33.0382 19.5738 32.8591 19.6708C32.6801 19.7482 32.521 19.8064 32.3818 19.8451C32.4017 19.8839 32.3719 19.9323 32.2923 19.9905C32.2127 20.0292 32.1232 20.0292 32.0238 19.9905C31.9841 20.1067 31.9343 20.2036 31.8747 20.2811C31.815 20.3586 31.7155 20.3973 31.5764 20.3973C31.5365 20.4942 31.4669 20.562 31.3674 20.6009C31.288 20.6202 31.2184 20.6686 31.1586 20.7461C31.0195 20.8043 30.8901 20.872 30.7708 20.9495C30.6714 21.0271 30.5719 21.1143 30.4725 21.2112C30.3929 21.2887 30.3334 21.3759 30.2935 21.4728C30.2736 21.5696 30.3233 21.6762 30.4427 21.7924C30.4626 21.6568 30.4824 21.5696 30.5023 21.5309C30.5422 21.4921 30.5918 21.4534 30.6515 21.4146C30.8504 21.589 30.9895 21.618 31.0691 21.5018C31.109 21.4049 31.1487 21.337 31.1886 21.2984C31.2283 21.2597 31.2979 21.279 31.3974 21.3565C31.6957 21.3565 31.8946 21.3177 31.994 21.2402C32.0934 21.1433 32.1034 21.0561 32.0238 20.9787C31.9642 20.843 31.9243 20.7558 31.9045 20.7171C31.8846 20.6783 31.8846 20.6396 31.9045 20.6009C32.0636 20.5234 32.1532 20.4942 32.173 20.5137C32.2127 20.5137 32.2923 20.5234 32.4116 20.5427C32.5708 20.5234 32.72 20.533 32.8591 20.5717C32.9983 20.5911 33.1177 20.562 33.2172 20.4845C33.2569 20.2521 33.3663 20.1357 33.5453 20.1357C33.7243 20.1164 33.9033 20.0583 34.0823 19.9614L34.3806 19.9905ZM33.0382 19.4092C32.8393 19.4092 32.7299 19.4092 32.7099 19.4092C32.531 19.5061 32.4316 19.5448 32.4116 19.5254C32.3917 19.4867 32.352 19.4769 32.2923 19.4964C32.4116 19.5933 32.521 19.632 32.6204 19.6126C32.7398 19.5738 32.879 19.5061 33.0382 19.4092ZM30.8603 18.3628C30.7609 18.421 30.6615 18.4306 30.562 18.392C30.4824 18.3531 30.4328 18.3823 30.4128 18.4792C30.6317 18.4792 30.7807 18.4403 30.8603 18.3628ZM34.2613 21.153C34.301 21.0561 34.301 20.9689 34.2613 20.8915C34.2215 20.7946 34.2215 20.6978 34.2613 20.6009C34.1619 20.5814 34.0922 20.5717 34.0525 20.5717C34.0325 20.5524 33.9829 20.562 33.9033 20.6009C33.8436 20.7364 33.784 20.843 33.7243 20.9205C33.6846 20.9787 33.6149 21.0271 33.5155 21.0658C33.3365 21.1046 33.237 21.1336 33.2172 21.153C33.1973 21.153 33.1674 21.1628 33.1277 21.1821C33.0084 21.4146 32.8889 21.56 32.7696 21.618C32.6702 21.6568 32.6005 21.744 32.5608 21.8796C32.6801 21.8409 32.7796 21.8021 32.8591 21.7634C32.9586 21.7052 33.0679 21.7052 33.1872 21.7634C33.1872 21.6278 33.237 21.5793 33.3365 21.618C33.4558 21.6375 33.5254 21.589 33.5453 21.4728C33.6249 21.4146 33.7144 21.337 33.8138 21.2402C33.9331 21.1433 34.0823 21.1143 34.2613 21.153ZM33.0979 20.7751C32.9983 20.814 32.9288 20.814 32.8889 20.7751C32.8691 20.7364 32.8294 20.7074 32.7696 20.6879C32.7696 20.7268 32.7696 20.7848 32.7696 20.8623C32.7696 20.9205 32.7398 20.9689 32.6801 21.0077C32.521 21.0658 32.4116 21.0949 32.352 21.0949C32.3122 21.0949 32.2923 21.1143 32.2923 21.153C32.3917 21.1725 32.4912 21.1821 32.5906 21.1821C32.7099 21.1628 32.7895 21.2015 32.8294 21.2984C32.8093 21.0271 32.8194 20.9012 32.8591 20.9205C32.8989 20.9205 32.9387 20.9205 32.9784 20.9205L33.0979 20.7751ZM31.815 20.0777C31.7354 20.0195 31.6558 20.0001 31.5764 20.0195C31.4968 20.0195 31.4569 20.0583 31.4569 20.1357C31.5365 20.1357 31.5962 20.1455 31.636 20.1649C31.6957 20.1649 31.7553 20.1357 31.815 20.0777ZM30.6813 19.5254C30.6217 19.603 30.5422 19.6126 30.4427 19.5545C30.3631 19.4964 30.3034 19.4964 30.2637 19.5545C30.4427 19.6708 30.5422 19.7192 30.562 19.6998C30.5819 19.6805 30.6117 19.6708 30.6515 19.6708L30.6813 19.5254ZM32.7099 21.9668C32.511 22.0056 32.362 22.025 32.2625 22.025C32.1829 22.025 32.1331 22.054 32.1133 22.1122C32.332 22.1702 32.4415 22.1799 32.4415 22.1412C32.4614 22.083 32.4912 22.0443 32.531 22.025L32.7099 21.9668ZM32.8591 22.2284C32.6801 22.3059 32.5807 22.3446 32.5608 22.3446C32.541 22.3253 32.511 22.3156 32.4713 22.3156C32.4713 22.5094 32.521 22.5675 32.6204 22.49C32.7398 22.4125 32.8194 22.3253 32.8591 22.2284ZM32.5011 21.589C32.521 21.3952 32.511 21.2887 32.4713 21.2693C32.4515 21.2498 32.4116 21.2498 32.352 21.2693C32.2923 21.2693 32.2326 21.2887 32.173 21.3274C32.1133 21.3469 32.0835 21.3759 32.0835 21.4146C31.9841 21.3759 31.8946 21.4049 31.815 21.5018C31.7553 21.5793 31.6657 21.6278 31.5465 21.6472C31.4073 21.8216 31.3079 21.9088 31.2481 21.9088C31.2084 21.9088 31.1785 21.9281 31.1586 21.9668C30.9996 22.1412 30.8206 22.2866 30.6217 22.4028C30.4427 22.4997 30.3731 22.6741 30.4128 22.9259C30.5122 22.9259 30.5719 22.9065 30.5918 22.8678C30.6317 22.829 30.6714 22.7806 30.7111 22.7225C30.7907 22.8193 30.8305 22.829 30.8305 22.7516C30.8504 22.6548 30.92 22.6159 31.0393 22.6353C31.1586 22.5384 31.2184 22.4707 31.2184 22.4318C31.2184 22.3931 31.2382 22.3543 31.2779 22.3156C31.3974 22.2381 31.4669 22.1799 31.4869 22.1412C31.5266 22.1025 31.5663 22.0734 31.6062 22.054C31.6657 22.1122 31.7056 22.1412 31.7255 22.1412C31.7653 22.1412 31.8348 22.1702 31.9343 22.2284C32.0337 22.0734 32.0835 21.9765 32.0835 21.9378C32.0835 21.8989 32.1133 21.8893 32.173 21.9088C32.1929 21.8893 32.1532 21.8893 32.0537 21.9088C31.9741 21.9088 31.9045 21.9281 31.8448 21.9668C31.8448 21.8119 31.8946 21.7149 31.994 21.6762C32.1133 21.6375 32.2127 21.5793 32.2923 21.5018L32.5011 21.589ZM24.4165 15.3112C24.297 15.1754 24.2175 15.1174 24.1777 15.1367C24.138 15.1561 24.0783 15.1658 23.9987 15.1658C24.138 15.3015 24.2175 15.3402 24.2375 15.282C24.2772 15.2045 24.3369 15.2143 24.4165 15.3112ZM24.4463 15.4854C24.4064 15.4274 24.327 15.3984 24.2075 15.3984C24.0882 15.3789 24.0285 15.4177 24.0285 15.5146C24.1281 15.4952 24.2673 15.4854 24.4463 15.4854ZM24.9236 14.352C24.7049 14.2745 24.5755 14.2163 24.5358 14.1776C24.3568 14.2357 24.2075 14.3132 24.0882 14.4101C23.9888 14.507 23.8596 14.5651 23.7004 14.5845C23.7401 14.6814 23.7004 14.7492 23.5811 14.7879C23.4817 14.8073 23.412 14.8073 23.3723 14.7879C23.3325 14.9042 23.2927 14.972 23.2529 14.9914C23.233 15.0107 23.1734 15.0107 23.0739 14.9914C23.0341 15.0689 22.9845 15.1464 22.9248 15.2239C22.8851 15.282 22.8055 15.3305 22.686 15.3692C22.5667 15.3692 22.4574 15.3789 22.3579 15.3984C22.3182 15.3015 22.2585 15.2723 22.1789 15.3112C22.1192 15.3498 22.0894 15.3015 22.0894 15.1658C22.1889 15.1851 22.2684 15.1851 22.3282 15.1658C22.4077 15.1464 22.4872 15.1271 22.5667 15.1076C22.4872 14.9527 22.5072 14.8364 22.6265 14.7589C22.7458 14.6814 22.8651 14.5942 22.9845 14.4973C22.9248 14.4585 22.8651 14.4585 22.8055 14.4973C22.7458 14.536 22.6961 14.536 22.6563 14.4973C22.6563 14.4004 22.6961 14.352 22.7755 14.352C22.8551 14.3326 22.895 14.2745 22.895 14.1776C22.7557 14.1582 22.5967 14.1679 22.4177 14.2067C22.2387 14.226 22.0993 14.2551 21.9999 14.2938C21.9801 14.3907 21.9801 14.4682 21.9999 14.5264C22.0398 14.5651 22.0795 14.6232 22.1192 14.7007C22.0596 14.7589 22.0098 14.8461 21.9701 14.9623C21.9503 15.0786 21.9403 15.2045 21.9403 15.3402C21.9403 15.4564 21.9602 15.5533 21.9999 15.6308C22.0596 15.7083 22.1491 15.7277 22.2684 15.689C22.169 15.8439 22.1392 15.9311 22.1789 15.9506C22.2387 15.9506 22.2784 15.9699 22.2982 16.0086C22.1789 16.0668 22.1192 16.1443 22.1192 16.2412C22.1192 16.3186 22.1392 16.3574 22.1789 16.3574C22.2188 16.2606 22.2684 16.2412 22.3282 16.2992C22.4077 16.3381 22.4872 16.3186 22.5667 16.2412C22.7656 16.1443 22.9347 16.1055 23.0739 16.1248C23.233 16.1443 23.3424 16.1345 23.4021 16.0958C23.3624 16.0958 23.3126 16.0958 23.2529 16.0958C23.2132 16.0765 23.1534 16.0668 23.0739 16.0668C23.2529 15.8149 23.2927 15.6793 23.1933 15.6598C23.2927 15.5436 23.3624 15.4564 23.4021 15.3984C23.4418 15.3402 23.4817 15.2917 23.5214 15.253C23.5613 15.1948 23.601 15.1464 23.6407 15.1076C23.6806 15.0689 23.7004 15.0302 23.7004 14.9914C23.9191 14.972 24.0684 14.943 24.148 14.9042C24.2275 14.8654 24.327 14.8654 24.4463 14.9042C24.4661 14.8461 24.4562 14.7879 24.4165 14.7298C24.3766 14.6717 24.3865 14.6232 24.4463 14.5845C24.6253 14.4489 24.7347 14.381 24.7744 14.381C24.8341 14.381 24.8837 14.3713 24.9236 14.352ZM32.2625 22.9841C32.2028 22.9259 32.1929 22.8775 32.2326 22.8388C32.2923 22.8 32.2923 22.7321 32.2326 22.6353C32.1133 22.6548 32.0139 22.7031 31.9343 22.7806C31.8747 22.8582 31.7951 22.9162 31.6957 22.955C31.7951 22.7613 31.8249 22.6644 31.7852 22.6644C31.7453 22.6449 31.7553 22.6159 31.815 22.5772C31.9543 22.6159 32.0436 22.6159 32.0835 22.5772C32.1232 22.519 32.173 22.4803 32.2326 22.461C32.173 22.4222 32.1034 22.4125 32.0238 22.4318C31.9442 22.4318 31.8648 22.4222 31.7852 22.4028C31.5863 22.5384 31.4569 22.6548 31.3974 22.7516C31.3575 22.829 31.3079 22.9065 31.2481 22.9841C31.4073 23.0423 31.5365 23.0229 31.636 22.9259C31.636 23.0616 31.6062 23.1391 31.5465 23.1585C31.4869 23.1585 31.4172 23.1681 31.3377 23.1875C31.2382 23.3426 31.109 23.4781 30.9498 23.5945C30.8107 23.6914 30.6615 23.7882 30.5023 23.8851C30.4626 24.04 30.4526 24.1951 30.4725 24.3501C30.4924 24.4857 30.4824 24.6117 30.4427 24.728C30.6017 24.5729 30.751 24.447 30.8901 24.3501C31.0493 24.2339 31.1785 24.0692 31.2779 23.8559C31.4371 23.7397 31.5167 23.6817 31.5167 23.6817C31.5365 23.6622 31.5365 23.6235 31.5167 23.5653C31.5962 23.546 31.6657 23.5073 31.7255 23.4491C31.7852 23.3911 31.8648 23.3619 31.9642 23.3619C32.0436 23.2263 32.0934 23.1391 32.1133 23.1003C32.1532 23.0616 32.2028 23.0229 32.2625 22.9841ZM34.2613 21.7634C34.1619 21.7634 34.0922 21.7924 34.0525 21.8506C34.0127 21.9088 33.9331 21.9378 33.8138 21.9378C33.8138 22.0928 33.7243 22.1799 33.5453 22.1994C33.4857 22.335 33.3962 22.4512 33.2767 22.5481C33.1773 22.6449 33.0679 22.742 32.9486 22.8388C32.8294 22.9162 32.72 23.0131 32.6204 23.1295C32.521 23.2263 32.4415 23.3522 32.3818 23.5073C32.0636 23.7591 31.7753 23.9917 31.5167 24.2048C31.2581 24.3985 31.0195 24.6311 30.8006 24.9024C30.7212 25.1155 30.6912 25.222 30.7111 25.222C30.751 25.222 30.7708 25.2414 30.7708 25.2802C30.6317 25.3577 30.5223 25.474 30.4427 25.629C30.3631 25.7646 30.3433 25.9583 30.383 26.2103C30.562 26.2489 30.6515 26.2975 30.6515 26.3555C30.6714 26.3943 30.6515 26.433 30.5918 26.4719C30.4725 26.6656 30.4029 26.8594 30.383 27.0531C30.3631 27.2275 30.3631 27.4116 30.383 27.6053C30.5422 27.6247 30.6615 27.6537 30.741 27.6926C30.8206 27.7312 30.9101 27.7701 31.0096 27.8088C30.9895 27.8863 30.9399 27.925 30.8603 27.925C30.7807 27.925 30.7212 27.9443 30.6813 27.9832C30.6615 28.0414 30.6317 28.0994 30.5918 28.1576C30.5521 28.2156 30.5223 28.2738 30.5023 28.332C30.4824 28.39 30.4725 28.4482 30.4725 28.5062C30.4924 28.5451 30.5521 28.5838 30.6515 28.6226C30.6117 28.4676 30.6317 28.39 30.7111 28.39C30.8107 28.3707 30.9 28.3417 30.9796 28.3028C31.0592 28.1673 31.1288 28.051 31.1886 27.9542C31.268 27.8573 31.3774 27.8281 31.5167 27.867C31.5365 27.6537 31.5564 27.5375 31.5764 27.5181C31.6161 27.4988 31.626 27.46 31.6062 27.4019C31.7453 27.2082 31.8448 27.121 31.9045 27.1403C31.9841 27.1403 32.0436 27.0918 32.0835 26.9949C32.0835 26.9369 32.1432 26.869 32.2625 26.7915C32.3818 26.714 32.521 26.6946 32.6801 26.7333C32.5807 26.5396 32.5608 26.4137 32.6204 26.3555C32.6801 26.2975 32.7398 26.2489 32.7994 26.2103C32.9586 26.2489 33.058 26.2781 33.0979 26.2975C33.1376 26.2975 33.1674 26.2781 33.1872 26.2393C33.1674 26.1812 33.1078 26.1617 33.0084 26.1812C32.9089 26.2006 32.8393 26.1909 32.7994 26.1521C32.879 26.0552 32.9586 25.9972 33.0382 25.9777C33.1376 25.9583 33.237 25.9196 33.3365 25.8615C33.4359 25.8808 33.5056 25.8711 33.5453 25.8324C33.5851 25.7936 33.6348 25.7549 33.6945 25.7161C33.8138 25.5805 33.8834 25.4836 33.9033 25.4254C33.943 25.3674 34.0127 25.3382 34.1121 25.3382C34.1121 25.1833 34.1121 25.0379 34.1121 24.9024C34.132 24.7473 34.0922 24.6504 33.9928 24.6117C34.0922 24.4373 34.1619 24.2726 34.2016 24.1176C34.2613 23.9431 34.2713 23.7397 34.2314 23.5073C34.0325 23.6042 33.8535 23.7204 33.6945 23.8559C33.5552 23.9723 33.4061 24.0885 33.247 24.2048C33.2668 24.1467 33.2569 24.0982 33.2172 24.0595C33.1973 24.0207 33.1773 23.9626 33.1575 23.8851C33.2767 23.8658 33.3365 23.8173 33.3365 23.7397C33.3563 23.6622 33.416 23.5848 33.5155 23.5073C33.6348 23.3135 33.6746 23.207 33.6348 23.1875C33.6149 23.1681 33.6149 23.1391 33.6348 23.1003C33.7541 23.0423 33.8237 23.0326 33.8436 23.0713C33.8636 23.0906 33.9033 23.1003 33.963 23.1003C34.0226 22.8872 34.1121 22.6838 34.2314 22.49C34.3707 22.2769 34.3806 22.0347 34.2613 21.7634ZM34.0226 26.1231C33.8039 26.2199 33.6149 26.3362 33.4558 26.4719C33.3166 26.6074 33.1773 26.7528 33.0382 26.9077C33.0979 26.9466 33.1575 26.9659 33.2172 26.9659C33.2767 26.9466 33.3365 26.9272 33.3962 26.9077C33.4558 26.869 33.5155 26.84 33.5751 26.8205C33.6348 26.8012 33.7044 26.8012 33.784 26.8205C33.8039 26.7431 33.8237 26.685 33.8436 26.6461C33.8834 26.5881 33.8834 26.5202 33.8436 26.4427C33.9033 26.404 33.9529 26.3652 33.9928 26.3265C34.0325 26.2878 34.0425 26.2199 34.0226 26.1231ZM24.4165 16.2992C24.3369 16.2992 24.2573 16.3089 24.1777 16.3284C24.118 16.3284 24.0882 16.3574 24.0882 16.4155C23.8894 16.6287 23.7701 16.7739 23.7302 16.8515C23.6905 16.9097 23.6407 16.9677 23.5811 17.0259C23.4418 17.0065 23.3523 17.0356 23.3126 17.1131C23.2729 17.1713 23.1933 17.1906 23.0739 17.1713C22.9347 17.4037 22.7755 17.6071 22.5967 17.7815C22.6165 17.8591 22.5967 17.9366 22.537 18.0141C22.4971 18.0917 22.4276 18.111 22.3282 18.0722C22.3679 18.169 22.4177 18.2079 22.4772 18.1885C22.5568 18.1497 22.6165 18.169 22.6563 18.2466C22.6761 18.1303 22.7259 18.0335 22.8055 17.9559C22.8851 17.8784 22.9944 17.8784 23.1336 17.9559C23.2132 17.8204 23.3424 17.7622 23.5214 17.7815C23.7999 17.5103 23.9888 17.2585 24.0882 17.0259C24.2075 16.7934 24.317 16.5512 24.4165 16.2992ZM32.8294 27.2856C32.6702 27.2082 32.5509 27.1984 32.4713 27.2565C32.4116 27.2952 32.3221 27.3341 32.2028 27.3728C32.3818 27.4309 32.521 27.46 32.6204 27.46C32.72 27.4406 32.7895 27.3824 32.8294 27.2856ZM22.6563 17.4619C22.537 17.3455 22.4276 17.3262 22.3282 17.4037C22.2287 17.4619 22.1293 17.5103 22.0299 17.5491C22.0894 17.5878 22.0894 17.646 22.0299 17.7235C21.99 17.7815 21.9999 17.83 22.0596 17.8687C22.1591 17.8107 22.2387 17.7332 22.2982 17.6363C22.3778 17.5394 22.4971 17.4812 22.6563 17.4619ZM32.8591 27.4891L32.6204 27.7216C32.2625 27.896 32.0238 28.0704 31.9045 28.2448C31.805 28.3997 31.6558 28.4772 31.4569 28.4772C31.3377 28.6323 31.1886 28.797 31.0096 28.9714C30.8305 29.1263 30.6615 29.2911 30.5023 29.4655C30.562 29.5817 30.562 29.6882 30.5023 29.7851C30.6813 29.6107 30.8206 29.4848 30.92 29.4073C31.0393 29.3104 31.1785 29.2426 31.3377 29.2039C31.6161 28.9519 31.805 28.7388 31.9045 28.5644C32.0039 28.39 32.1432 28.3028 32.3221 28.3028C32.3022 28.2059 32.3122 28.1284 32.352 28.0704C32.3917 27.9928 32.4415 27.9347 32.5011 27.896C32.5807 27.8378 32.6503 27.7798 32.7099 27.7216C32.7895 27.6634 32.8393 27.586 32.8591 27.4891ZM34.0525 28.361C33.9529 28.2641 33.8636 28.2448 33.784 28.3028C33.7044 28.361 33.605 28.4094 33.4857 28.4482C33.4857 28.5257 33.4558 28.5934 33.3962 28.6516C33.3365 28.6903 33.2867 28.7001 33.247 28.6806C33.247 28.5451 33.2072 28.4966 33.1277 28.5354C33.0679 28.5548 32.9983 28.5644 32.9189 28.5644C33.0779 28.6806 33.1575 28.7678 33.1575 28.826C33.1575 28.8842 33.1277 28.9132 33.0679 28.9132C33.0084 28.8744 32.9487 28.8357 32.8889 28.797C32.8492 28.7388 32.7994 28.7388 32.7398 28.797C32.7398 28.6226 32.7696 28.5354 32.8294 28.5354C32.8889 28.5354 32.9586 28.5257 33.0382 28.5062C33.0979 28.3513 33.2271 28.2545 33.426 28.2156C33.6447 28.1576 33.8337 28.1382 33.9928 28.1576C33.9132 28.0219 33.8834 27.9347 33.9033 27.896C33.9232 27.8573 33.963 27.8281 34.0226 27.8088C34.0425 27.7119 34.0325 27.6344 33.9928 27.5762C33.973 27.5181 33.9829 27.46 34.0226 27.4019C33.8834 27.3631 33.7541 27.3534 33.6348 27.3728C33.5353 27.3923 33.4657 27.4503 33.426 27.5472C33.2072 27.6634 33.1078 27.7409 33.1277 27.7798C33.1674 27.8184 33.1872 27.867 33.1872 27.925C33.0481 27.9638 32.9685 28.0025 32.9486 28.0414C32.9486 28.0801 32.9288 28.1187 32.8889 28.1576C32.7895 28.0994 32.72 28.1187 32.6801 28.2156C32.6603 28.2931 32.6005 28.3223 32.5011 28.3028C32.4614 28.5161 32.4116 28.6226 32.352 28.6226C32.3122 28.6033 32.2724 28.6129 32.2326 28.6516C32.1929 28.826 32.1331 28.9229 32.0537 28.9423C31.994 28.9616 31.9642 29.0198 31.9642 29.1167C32.0636 29.0585 32.1532 29.0391 32.2326 29.0585C32.332 29.078 32.4316 29.107 32.531 29.1457C32.5708 29.0488 32.6305 28.9811 32.7099 28.9423C32.8093 28.8842 32.879 28.9036 32.9189 29.0004C32.7796 29.0391 32.6603 29.107 32.5608 29.2039C32.4813 29.3007 32.352 29.3589 32.173 29.3783C32.1133 29.5333 32.0039 29.6204 31.8448 29.6399C31.7056 29.6592 31.6062 29.7561 31.5465 29.9305C31.4272 30.0854 31.2979 30.1824 31.1586 30.2211C31.0393 30.2405 30.9498 30.2987 30.8901 30.3955C30.7311 30.5117 30.6217 30.6086 30.562 30.6862C30.5023 30.7637 30.4626 30.8606 30.4427 30.9768C30.4427 31.0737 30.4427 31.1899 30.4427 31.3256C30.4626 31.4418 30.4526 31.558 30.4128 31.6744C30.5719 31.558 30.6813 31.4708 30.741 31.4128C30.8206 31.3353 30.8901 31.2674 30.9498 31.2094C31.0294 31.1318 31.109 31.0737 31.1886 31.035C31.268 30.9961 31.3674 30.9865 31.4869 31.0058C31.4869 30.9671 31.4869 30.9186 31.4869 30.8606C31.5067 30.783 31.5365 30.7248 31.5764 30.6862C31.815 30.6086 31.9442 30.5893 31.9642 30.628C31.9841 30.6668 32.0238 30.7055 32.0835 30.7443C32.1232 30.6475 32.0934 30.5893 31.994 30.5699C31.9144 30.5311 31.8547 30.4924 31.815 30.4536C31.8747 30.4342 31.9144 30.4052 31.9343 30.3664C31.9741 30.3083 32.0436 30.2793 32.1432 30.2793C32.2028 30.1436 32.2427 30.0661 32.2625 30.0467C32.3022 30.008 32.352 29.9984 32.4116 30.0177C32.4116 29.8626 32.4813 29.7851 32.6204 29.7851C32.7597 29.7658 32.8492 29.7174 32.8889 29.6399C33.1078 29.5623 33.2569 29.4751 33.3365 29.3783C33.4359 29.262 33.5651 29.1845 33.7243 29.1457C33.7243 28.9132 33.764 28.7582 33.8436 28.6806C33.943 28.6033 34.0127 28.4966 34.0525 28.361ZM34.2016 33.9123C34.1022 33.8155 34.0625 33.6894 34.0823 33.5345C34.122 33.3601 34.0922 33.2051 33.9928 33.0695C34.0325 32.9338 34.0625 32.7885 34.0823 32.6335C34.122 32.4591 34.0922 32.3137 33.9928 32.1975C33.7939 32.3912 33.6249 32.4687 33.4857 32.4301C33.4657 32.4881 33.4458 32.5463 33.426 32.6045C33.4061 32.6625 33.3863 32.7207 33.3663 32.7787C33.5453 32.74 33.6746 32.7594 33.7541 32.8369C33.8535 32.8951 33.9033 32.9726 33.9033 33.0695C33.9033 33.1469 33.8636 33.2341 33.784 33.3309C33.7243 33.4085 33.6249 33.4473 33.4857 33.4473C33.4857 33.5442 33.4756 33.6119 33.4558 33.6507C33.4359 33.6894 33.416 33.7283 33.3962 33.767C33.4956 33.8445 33.5851 33.8832 33.6646 33.8832C33.764 33.8638 33.8535 33.9027 33.9331 33.9995L34.2016 33.9123ZM31.5764 31.1512C31.4371 31.2094 31.3377 31.2384 31.2779 31.2384C31.2184 31.219 31.1985 31.2384 31.2184 31.2964C31.4371 31.2771 31.5465 31.2577 31.5465 31.2384C31.5465 31.1995 31.5564 31.1705 31.5764 31.1512ZM34.6789 35.0458C34.7585 34.949 34.7784 34.8521 34.7387 34.7552C34.7187 34.6388 34.6293 34.5905 34.4701 34.6098C34.49 34.7067 34.4801 34.7745 34.4404 34.8132C34.4203 34.8327 34.4104 34.8811 34.4104 34.9586L34.6789 35.0458ZM34.1121 30.8606C34.0724 30.8217 34.0325 30.783 33.9928 30.7443C33.973 30.6862 33.9232 30.6571 33.8436 30.6571C33.8039 30.754 33.7342 30.8024 33.6348 30.8024C33.5353 30.8024 33.4657 30.8217 33.426 30.8606C33.3663 30.6862 33.416 30.5603 33.5751 30.4827C33.7342 30.4052 33.8636 30.2695 33.963 30.0757C33.8834 30.0757 33.8138 30.0854 33.7541 30.1049C33.6945 30.1049 33.6447 30.1049 33.605 30.1049C33.6447 30.0274 33.7541 29.9984 33.9331 30.0177C33.9529 29.9208 33.943 29.8433 33.9033 29.7851C33.8636 29.7076 33.8934 29.6302 33.9928 29.5527C33.7541 29.4751 33.6248 29.417 33.605 29.3783C33.605 29.3394 33.5751 29.3394 33.5155 29.3783C33.4558 29.4945 33.3663 29.5914 33.247 29.6689C33.1475 29.7464 33.0382 29.8336 32.9189 29.9305C32.7994 30.0274 32.6603 30.0757 32.5011 30.0757C32.3221 30.3083 32.2127 30.4731 32.173 30.5699C32.3122 30.628 32.4116 30.628 32.4713 30.5699C32.5509 30.5117 32.6404 30.4827 32.7398 30.4827C32.6801 30.6571 32.6305 30.754 32.5906 30.7734C32.5708 30.7734 32.5708 30.8024 32.5906 30.8606C32.4316 30.9186 32.352 30.9671 32.352 31.0058C32.352 31.0446 32.332 31.0833 32.2923 31.1222C32.173 31.0058 32.0835 30.9671 32.0238 31.0058C31.9841 31.0253 31.9642 31.0833 31.9642 31.1802C32.0636 31.2577 32.0636 31.3062 31.9642 31.3256C31.8846 31.3449 31.7951 31.3643 31.6957 31.3836C31.6161 31.4031 31.5465 31.4418 31.4869 31.5C31.447 31.5387 31.447 31.6259 31.4869 31.7616C31.288 31.8585 31.1388 31.9455 31.0393 32.0231C30.9598 32.1006 30.8703 32.1878 30.7708 32.2847C30.6912 32.3622 30.6117 32.4591 30.5322 32.5753C30.4725 32.6722 30.4427 32.7982 30.4427 32.9531C30.4824 32.8756 30.5322 32.8562 30.5918 32.8951C30.6515 32.9338 30.7111 32.9434 30.7708 32.9241C30.9697 32.9823 31.0393 33.0403 30.9796 33.0985C30.92 33.1372 30.92 33.176 30.9796 33.2147C30.9796 33.4085 30.9697 33.5345 30.9498 33.5926C30.8107 33.6314 30.7311 33.6604 30.7111 33.6798C30.6912 33.6991 30.6615 33.7088 30.6217 33.7088C30.4824 33.9995 30.2935 34.2223 30.0549 34.3774C29.8162 34.5323 29.5974 34.7164 29.3986 34.9296C29.5179 34.9876 29.6272 34.949 29.7267 34.8132C29.8459 34.6777 29.9952 34.6098 30.1742 34.6098C30.3929 34.3385 30.6317 34.1158 30.8901 33.9414C31.1686 33.767 31.4371 33.5732 31.6957 33.3601C31.8946 33.2826 32.0537 33.2051 32.173 33.1275C32.3122 33.05 32.4116 33.0113 32.4713 33.0113C32.6503 32.8176 32.7597 32.7497 32.7994 32.8079C32.8591 32.8466 32.8889 32.8272 32.8889 32.7497C32.9884 32.4978 33.0979 32.3332 33.2172 32.2556C33.3365 32.1588 33.4657 32.1296 33.605 32.1684C33.605 32.0716 33.5552 32.0327 33.4558 32.0522C33.3762 32.0522 33.3265 32.0231 33.3067 31.965C33.5056 32.0037 33.6248 31.994 33.6646 31.9359C33.784 31.8196 33.8237 31.7421 33.784 31.7034C33.764 31.6646 33.7342 31.6356 33.6945 31.6162C33.8535 31.558 33.9232 31.5193 33.9033 31.5C33.8834 31.4805 33.8834 31.4321 33.9033 31.3546C34.0027 31.3934 34.0525 31.3353 34.0525 31.1802C34.0525 31.0253 34.0724 30.9186 34.1121 30.8606ZM33.3365 33.767C33.237 33.7088 33.1575 33.6507 33.0979 33.5926C33.0382 33.5345 32.9784 33.5539 32.9189 33.6507C33.0779 33.7476 33.1475 33.8251 33.1277 33.8832C33.1277 33.9414 33.1078 33.9704 33.0679 33.9704C33.1872 34.0286 33.2767 33.9607 33.3365 33.767ZM34.3209 34.3192C34.2613 34.2805 34.2215 34.2417 34.2016 34.203C34.1818 34.1448 34.132 34.1061 34.0525 34.0866C33.7741 34.0479 33.6646 34.0769 33.7243 34.1738C33.5453 34.232 33.4458 34.2513 33.426 34.232C33.4061 34.2126 33.3762 34.203 33.3365 34.203C33.0779 34.3385 32.8889 34.4742 32.7696 34.6098C32.6503 34.726 32.4912 34.8229 32.2923 34.9004C32.352 34.9973 32.4415 35.0555 32.5608 35.0748C32.7 35.0942 32.8393 35.0942 32.9784 35.0748C33.1376 35.0555 33.2867 35.0362 33.426 35.0167C33.5651 34.9973 33.6846 34.9973 33.784 35.0167C33.8834 34.8811 33.9529 34.7552 33.9928 34.6388C34.0525 34.5226 34.1619 34.4161 34.3209 34.3192ZM33.4857 33.1275C33.4061 32.992 33.3464 32.9241 33.3067 32.9241C33.2668 32.9048 33.2271 32.9144 33.1872 32.9531C33.1078 33.2437 32.9884 33.3988 32.8294 33.4181C32.6702 33.4181 32.541 33.4667 32.4415 33.5635C32.4215 33.6217 32.3421 33.6991 32.2028 33.796C32.0835 33.8735 31.9741 33.9027 31.8747 33.8832C31.6957 34.0189 31.6161 34.1061 31.636 34.1448C31.6758 34.1836 31.6758 34.203 31.636 34.203C31.4968 34.1836 31.3874 34.2223 31.3079 34.3192C31.2481 34.3967 31.1686 34.4354 31.0691 34.4354C30.9895 34.4936 30.93 34.5615 30.8901 34.6388C30.8703 34.697 30.8006 34.697 30.6813 34.6388C30.7212 34.7357 30.741 34.8132 30.741 34.8714C30.741 34.9296 30.7212 34.978 30.6813 35.0167C30.7609 35.0748 30.8405 35.0845 30.92 35.0458C30.9996 35.007 31.0691 34.9683 31.1288 34.9296C31.2084 34.8714 31.288 34.8229 31.3674 34.7842C31.447 34.7455 31.5465 34.7455 31.6657 34.7842C31.7255 34.7455 31.7951 34.7067 31.8747 34.668C31.9741 34.6098 31.9741 34.5518 31.8747 34.4936C31.9741 34.3774 32.0636 34.3095 32.1432 34.2902C32.2427 34.2707 32.2824 34.2223 32.2625 34.1448C32.2625 34.0673 32.2824 34.0189 32.3221 33.9995C32.541 34.0189 32.6404 34.0189 32.6204 33.9995C32.6204 33.9607 32.6702 33.951 32.7696 33.9704C32.7895 33.7186 32.8492 33.5829 32.9486 33.5635C33.0679 33.5247 33.1575 33.4667 33.2172 33.3891C33.3166 33.3891 33.3762 33.3698 33.3962 33.3309C33.416 33.2923 33.4458 33.2244 33.4857 33.1275ZM30.7708 33.3891C30.7907 33.3504 30.8107 33.2923 30.8305 33.2147C30.8703 33.1372 30.8504 33.0888 30.7708 33.0695C30.7311 33.1857 30.7111 33.2729 30.7111 33.3309C30.7111 33.3698 30.7311 33.3891 30.7708 33.3891ZM33.8436 14.6426C33.8039 14.817 33.7044 14.943 33.5453 15.0205C33.4061 15.0979 33.2867 15.2045 33.1872 15.3402C32.8691 15.437 32.6702 15.5629 32.5906 15.718C32.531 15.8536 32.3917 15.9214 32.173 15.9214C32.0337 16.0571 31.8648 16.1443 31.6657 16.183C31.5663 16.435 31.4569 16.5802 31.3377 16.619C31.2184 16.6577 31.1189 16.6966 31.0393 16.7353C31.1586 16.5222 31.1985 16.4155 31.1586 16.4155C31.1388 16.3961 31.1388 16.3671 31.1586 16.3284C31.2581 16.3284 31.3575 16.2606 31.4569 16.1248C31.3774 15.9311 31.3974 15.8634 31.5167 15.9214C31.636 15.9603 31.6858 15.9117 31.6657 15.7762C31.7453 15.8149 31.7951 15.8439 31.815 15.8634C31.8348 15.8634 31.8846 15.8827 31.9642 15.9214C32.0436 15.7665 32.0835 15.6598 32.0835 15.6018C32.1034 15.5436 32.1631 15.5242 32.2625 15.5436C32.362 15.408 32.4017 15.3305 32.3818 15.3112C32.3818 15.2917 32.4017 15.2336 32.4415 15.1367C32.521 15.1561 32.5807 15.1851 32.6204 15.2239C32.6801 15.2433 32.7498 15.2336 32.8294 15.1948C32.8093 15.001 32.8591 14.8945 32.9784 14.8751C33.1177 14.8364 33.237 14.8557 33.3365 14.9333C33.2968 14.8557 33.2867 14.8073 33.3067 14.7879C33.3265 14.7492 33.3265 14.6911 33.3067 14.6135C33.4061 14.6329 33.5056 14.6329 33.605 14.6135C33.7044 14.5748 33.784 14.5845 33.8436 14.6426ZM32.2028 16.5899C32.1631 16.6287 32.1034 16.6481 32.0238 16.6481C31.9642 16.6287 31.9144 16.6384 31.8747 16.6771C32.0139 16.5415 32.0934 16.493 32.1133 16.5318C32.1331 16.5512 32.1631 16.5705 32.2028 16.5899ZM31.2184 15.9506C31.1189 15.9893 31.0691 16.0475 31.0691 16.1248C31.0691 16.183 31.0691 16.2412 31.0691 16.2992C31.0096 16.183 30.9796 16.1152 30.9796 16.0958C30.9996 16.0765 30.9996 16.0183 30.9796 15.9214L31.2184 15.9506ZM32.3221 17.5781C32.2227 17.5588 32.173 17.5878 32.173 17.6653C32.173 17.7235 32.1232 17.7525 32.0238 17.7525C32.2227 17.5588 32.3221 17.5006 32.3221 17.5781ZM30.8901 16.2702C30.8305 16.3089 30.7708 16.3478 30.7111 16.3864C30.6714 16.4058 30.6217 16.4155 30.562 16.4155C30.6217 16.2606 30.6714 16.1927 30.7111 16.212C30.7708 16.2315 30.8305 16.2509 30.8901 16.2702ZM33.605 19.8742C33.5453 19.9129 33.4657 19.9323 33.3663 19.9323C33.2668 19.9323 33.1872 19.9129 33.1277 19.8742C33.3067 19.8354 33.3962 19.7967 33.3962 19.7579C33.416 19.7192 33.4458 19.6902 33.4857 19.6708L33.605 19.8742ZM32.5906 20.0777C32.6305 20.1745 32.6005 20.2132 32.5011 20.1939C32.4215 20.1745 32.3421 20.1745 32.2625 20.1939C32.3421 20.1745 32.3917 20.1455 32.4116 20.1067C32.4515 20.068 32.511 20.0583 32.5906 20.0777ZM33.6646 24.9896C33.4061 25.0671 33.2569 25.1737 33.2172 25.3092C33.2767 25.193 33.3365 25.1058 33.3962 25.0476C33.4756 24.9701 33.5651 24.9507 33.6646 24.9896ZM33.1575 24.1757C32.9784 24.2144 32.879 24.292 32.8591 24.4082C32.8393 24.5245 32.8093 24.6021 32.7696 24.6408C32.6503 24.7183 32.521 24.7958 32.3818 24.8732C32.2625 24.9314 32.1232 24.9799 31.9642 25.0186C31.9442 24.9411 31.994 24.883 32.1133 24.8442C32.2326 24.786 32.3421 24.7473 32.4415 24.728C32.4813 24.6891 32.521 24.6408 32.5608 24.5826C32.6005 24.5051 32.6702 24.4954 32.7696 24.5536C32.6702 24.4567 32.6702 24.3501 32.7696 24.2339C32.8691 24.1176 32.9983 24.0982 33.1575 24.1757ZM32.4713 25.8033C32.352 25.9583 32.2824 26.0455 32.2625 26.0649C32.2427 26.0842 32.2127 26.094 32.173 26.094C32.2326 25.9972 32.2824 25.939 32.3221 25.9196C32.362 25.9001 32.3818 25.8614 32.3818 25.8033H32.4713ZM32.0238 26.4719C31.8648 26.5106 31.7155 26.5396 31.5764 26.5591C31.6957 26.5591 31.7852 26.5299 31.8448 26.4719C31.9045 26.3943 31.9642 26.3943 32.0238 26.4719ZM31.5465 26.7333C31.6062 26.8109 31.5764 26.869 31.4569 26.9077C31.3377 26.9272 31.2581 26.9077 31.2184 26.8497C31.3575 26.8302 31.4669 26.7915 31.5465 26.7333ZM33.4857 30.3373C33.2867 30.3762 33.1575 30.3955 33.0979 30.3955C33.058 30.3762 33.0382 30.3373 33.0382 30.2793C33.1376 30.318 33.2072 30.347 33.247 30.3664C33.3067 30.3664 33.3863 30.3567 33.4857 30.3373ZM33.4558 31.064C33.416 31.1609 33.3464 31.219 33.247 31.2384C33.1475 31.2384 33.0779 31.2674 33.0382 31.3256C32.9784 31.2867 32.9288 31.2481 32.8889 31.2094C32.8492 31.1705 32.7796 31.1705 32.6801 31.2094C32.7 31.0155 32.7994 30.9381 32.9784 30.9768C33.1773 30.9961 33.3365 31.0253 33.4558 31.064ZM33.2172 32.0812C33.1773 32.1394 33.1177 32.1781 33.0382 32.1975C32.9784 32.2168 32.8989 32.2363 32.7994 32.2556C32.9189 32.1975 32.9884 32.1491 33.0084 32.1103C33.0282 32.0716 33.0979 32.0619 33.2172 32.0812ZM32.8889 31.529C32.7696 31.6646 32.6603 31.7616 32.5608 31.8196C32.4614 31.8778 32.3818 31.9554 32.3221 32.0522C32.4614 32.0134 32.6305 31.9747 32.8294 31.9359C32.8294 32.0716 32.7696 32.1491 32.6503 32.1684C32.5509 32.1878 32.4813 32.246 32.4415 32.3428C32.3022 32.2265 32.2427 32.1588 32.2625 32.1394C32.3022 32.1006 32.3022 32.0716 32.2625 32.0522C32.1631 32.1103 32.0537 32.1296 31.9343 32.1103C31.815 32.0909 31.7056 32.1296 31.6062 32.2265C31.7852 32.0716 31.9343 31.9455 32.0537 31.8487C32.1929 31.7518 32.352 31.6452 32.531 31.529C32.511 31.3353 32.541 31.2674 32.6204 31.3256C32.7 31.3836 32.7895 31.3934 32.8889 31.3546V31.529ZM31.994 32.7497C31.9144 32.7304 31.8648 32.7207 31.8448 32.7207C31.8249 32.7207 31.7653 32.7304 31.6657 32.7497C31.5067 32.8272 31.4669 32.9338 31.5465 33.0695C31.447 33.1469 31.3774 33.1469 31.3377 33.0695C31.3178 32.9726 31.2581 32.9531 31.1586 33.0113C31.3774 32.9144 31.4968 32.8079 31.5167 32.6917C31.3774 32.4784 31.3277 32.3719 31.3674 32.3719C31.4073 32.3525 31.447 32.3428 31.4869 32.3428C31.5465 32.3428 31.5962 32.3428 31.636 32.3428C31.6758 32.3235 31.6957 32.2847 31.6957 32.2265C31.815 32.3428 31.8547 32.4106 31.815 32.4301C31.7951 32.4494 31.7951 32.4881 31.815 32.5463L31.994 32.7497Z" fill="black"/>
<path d="M25.5379 48.4396C38.8905 48.1782 49.4974 37.4208 49.2292 24.4122C48.9609 11.4036 37.9191 1.06991 24.5664 1.33125C11.2138 1.59259 0.606864 12.35 0.875114 25.3586C1.14336 38.3672 12.1853 48.7009 25.5379 48.4396Z" stroke="url(#paint0_linear_6_201)" stroke-width="5"/>
<path d="M39.2939 1.46568C25.9526 0.870917 14.6424 10.9254 14.0319 23.9231C13.4214 36.9207 23.7418 47.9395 37.0831 48.5343C50.4244 49.1291 61.7346 39.0745 62.3451 26.0769C62.9556 13.0793 52.6352 2.06045 39.2939 1.46568Z" stroke="url(#paint1_linear_6_201)" stroke-width="5"/>
</g>
<defs>
<linearGradient id="paint0_linear_6_201" x1="49.611" y1="24.4047" x2="0.494338" y2="25.4176" gradientUnits="userSpaceOnUse">
<stop stop-color="#F77600"/>
<stop offset="0.284929" stop-color="#EB4D2A"/>
<stop offset="0.68537" stop-color="#5725A9"/>
<stop offset="1" stop-color="#010E81"/>
</linearGradient>
<linearGradient id="paint1_linear_6_201" x1="13.6502" y1="23.9061" x2="62.7211" y2="26.2109" gradientUnits="userSpaceOnUse">
<stop stop-color="#F77600"/>
<stop offset="0.338542" stop-color="#EB4D2A"/>
<stop offset="0.677083" stop-color="#5725A9"/>
<stop offset="1" stop-color="#010E81"/>
</linearGradient>
<clipPath id="clip0_6_201">
<rect width="64" height="50" fill="white"/>
</clipPath>
</defs>
</svg>
