<svg width="163" height="136" viewBox="0 0 163 136" fill="none" xmlns="http://www.w3.org/2000/svg">
<path d="M151.062 0H11.9385C8.77328 0.00354065 5.73874 1.26304 3.50061 3.50217C1.26248 5.7413 0.00353908 8.77719 0 11.9438L0 95.7096C0.00353908 98.8762 1.26248 101.912 3.50061 104.151C5.73874 106.39 8.77328 107.65 11.9385 107.653H68.7656V116.89H51.6404C50.4709 116.889 49.3307 117.257 48.3819 117.941C47.4331 118.625 46.7239 119.591 46.355 120.701L43.7018 128.664C43.4227 129.502 43.3465 130.394 43.4796 131.267C43.6128 132.14 43.9514 132.969 44.4676 133.685C44.9837 134.402 45.6627 134.985 46.4485 135.388C47.2343 135.79 48.1044 136 48.9872 136H114.013C114.896 136 115.766 135.79 116.552 135.388C117.337 134.985 118.016 134.402 118.532 133.685C119.049 132.969 119.387 132.14 119.52 131.267C119.653 130.394 119.577 129.502 119.298 128.664L116.645 120.701C116.276 119.591 115.567 118.625 114.618 117.941C113.669 117.257 112.529 116.889 111.36 116.89H94.2344V107.653H134.348V128.834C134.35 130.734 135.105 132.555 136.448 133.899C137.791 135.242 139.612 135.998 141.511 136H155.837C157.736 135.998 159.557 135.242 160.9 133.899C162.243 132.555 162.998 130.734 163 128.834V11.9438C162.996 8.77719 161.738 5.7413 159.499 3.50217C157.261 1.26304 154.227 0.00354065 151.062 0ZM111.36 121.667C111.527 121.667 111.69 121.72 111.825 121.818C111.961 121.915 112.062 122.053 112.115 122.212L114.768 130.175C114.808 130.294 114.819 130.422 114.8 130.546C114.781 130.671 114.732 130.79 114.658 130.892C114.585 130.994 114.488 131.078 114.375 131.135C114.263 131.193 114.139 131.222 114.013 131.222H48.9872C48.8611 131.222 48.7368 131.193 48.6246 131.135C48.5123 131.078 48.4153 130.994 48.3416 130.892C48.2679 130.79 48.2195 130.671 48.2004 130.546C48.1814 130.422 48.1922 130.294 48.2321 130.175L50.8853 122.212C50.9379 122.053 51.0392 121.915 51.1747 121.818C51.3102 121.72 51.4731 121.667 51.6401 121.667H111.36ZM73.541 116.89V107.653H89.459V116.89H73.541ZM134.348 71.822V93.3208H14.3262V14.3326H148.674V64.6557H141.511C139.612 64.6578 137.791 65.4135 136.448 66.757C135.105 68.1005 134.35 69.922 134.348 71.822ZM158.225 128.834C158.224 129.467 157.972 130.074 157.525 130.522C157.077 130.97 156.47 131.222 155.837 131.222H141.511C140.878 131.222 140.271 130.97 139.823 130.522C139.375 130.074 139.124 129.467 139.123 128.834V71.822C139.124 71.1887 139.375 70.5815 139.823 70.1337C140.271 69.6858 140.878 69.4339 141.511 69.4333H155.837C156.47 69.4339 157.077 69.6858 157.525 70.1337C157.972 70.5815 158.224 71.1887 158.225 71.822V128.834ZM158.225 65.0666C157.458 64.7944 156.65 64.6554 155.837 64.6557H153.449V11.9438C153.449 11.3103 153.198 10.7027 152.75 10.2547C152.302 9.80671 151.695 9.55504 151.062 9.55504H11.9385C11.3052 9.55504 10.6979 9.80671 10.2501 10.2547C9.80234 10.7027 9.55078 11.3103 9.55078 11.9438V95.7096C9.55078 96.3431 9.80234 96.9507 10.2501 97.3987C10.6979 97.8467 11.3052 98.0984 11.9385 98.0984H134.348V102.876H11.9385C10.0394 102.874 8.21862 102.118 6.87574 100.775C5.53285 99.4311 4.7775 97.6096 4.77539 95.7096V11.9438C4.7775 10.0438 5.53285 8.22228 6.87574 6.8788C8.21862 5.53532 10.0394 4.77963 11.9385 4.77752H151.062C152.961 4.77963 154.781 5.53532 156.124 6.8788C157.467 8.22228 158.223 10.0438 158.225 11.9438V65.0666ZM146.468 77.1951C146.527 77.3388 146.601 77.4764 146.687 77.606C146.863 77.8673 147.088 78.0922 147.349 78.2685C147.479 78.3548 147.616 78.4284 147.76 78.4882C147.904 78.5468 148.053 78.5916 148.206 78.622C148.515 78.6859 148.833 78.6859 149.142 78.622C149.294 78.5916 149.444 78.5468 149.588 78.4882C149.731 78.4284 149.869 78.3548 149.998 78.2685C150.259 78.0922 150.484 77.8673 150.66 77.606C150.747 77.4764 150.82 77.3388 150.88 77.1951C150.939 77.0511 150.983 76.9018 151.014 76.7492C151.078 76.4404 151.078 76.1217 151.014 75.8128C150.983 75.6603 150.939 75.511 150.88 75.3669C150.82 75.2232 150.747 75.0856 150.66 74.9561C150.484 74.6948 150.259 74.4699 149.998 74.2936C149.869 74.2073 149.731 74.1337 149.588 74.0738C149.444 74.0152 149.294 73.9704 149.142 73.94C148.833 73.8763 148.515 73.8763 148.206 73.94C148.053 73.9705 147.904 74.0153 147.76 74.0738C147.616 74.1337 147.479 74.2073 147.349 74.2936C147.088 74.4699 146.863 74.6948 146.687 74.9561C146.601 75.0856 146.527 75.2232 146.468 75.3669C146.409 75.511 146.364 75.6603 146.334 75.8128C146.27 76.1217 146.27 76.4403 146.334 76.7492C146.364 76.9018 146.409 77.0511 146.468 77.1951ZM151.062 112.112H146.286C145.653 112.112 145.046 112.364 144.598 112.812C144.15 113.26 143.898 113.868 143.898 114.501C143.898 115.135 144.15 115.742 144.598 116.19C145.046 116.638 145.653 116.89 146.286 116.89H151.062C151.695 116.89 152.302 116.638 152.75 116.19C153.198 115.742 153.449 115.135 153.449 114.501C153.449 113.868 153.198 113.26 152.75 112.812C152.302 112.364 151.695 112.112 151.062 112.112ZM151.062 121.667H146.286C145.653 121.667 145.046 121.919 144.598 122.367C144.15 122.815 143.898 123.423 143.898 124.056C143.898 124.69 144.15 125.297 144.598 125.745C145.046 126.193 145.653 126.445 146.286 126.445H151.062C151.695 126.445 152.302 126.193 152.75 125.745C153.198 125.297 153.449 124.69 153.449 124.056C153.449 123.423 153.198 122.815 152.75 122.367C152.302 121.919 151.695 121.667 151.062 121.667Z" fill="url(#paint0_linear_26_55)"/>
<defs>
<linearGradient id="paint0_linear_26_55" x1="164.287" y1="68" x2="-1.28716" y2="68" gradientUnits="userSpaceOnUse">
<stop stop-color="#F77600"/>
<stop offset="0.284929" stop-color="#EB4D2A"/>
<stop offset="0.68537" stop-color="#5725A9"/>
<stop offset="1" stop-color="#010E81"/>
</linearGradient>
</defs>
</svg>
